<svg width="57" height="58" viewBox="0 0 57 58" fill="none" xmlns="http://www.w3.org/2000/svg">
<path d="M10.3076 29.9471C10.1454 30.1194 10.1223 30.3409 10.3076 30.5377L27.9529 49.2763C28.065 49.3954 28.2608 49.4552 28.4571 49.4558C28.6534 49.4552 28.8491 49.3954 28.9612 49.2763L46.6066 30.5377C46.7919 30.3408 46.7688 30.1193 46.6066 29.9471C46.334 29.6577 45.7943 29.6517 45.7723 29.6517C41.9837 30.0353 37.8038 30.3295 33.2853 30.4563L46.6066 16.3098C46.7919 16.1129 46.7688 15.8914 46.6066 15.7191C46.334 15.4297 45.7943 15.4237 45.7723 15.4237C43.1638 15.7429 40.1934 16.0303 36.9133 16.2235C36.9324 16.1683 36.9428 16.111 36.9428 16.0523V0.920965C36.9428 0.693575 36.7925 0.487737 36.5495 0.338731C36.1109 0.0698492 35.683 0.0835759 35.5999 0.0975511C33.538 0.40929 31.1349 0.633947 28.457 0.63401C25.7791 0.633947 23.3761 0.409228 21.3142 0.0975511C21.2311 0.0835759 20.8031 0.0698492 20.3646 0.338731C20.1215 0.487737 19.9712 0.693575 19.9712 0.920965V16.0523C19.9712 16.1111 19.9816 16.1683 20.0007 16.2235C16.7207 16.0303 13.7502 15.7429 11.1418 15.4237C11.1198 15.4237 10.58 15.4296 10.3075 15.7191C10.1453 15.8914 10.1221 16.1129 10.3075 16.3098L23.6287 30.4563C19.1103 30.3295 14.9304 30.0353 11.1418 29.6517C11.1199 29.6517 10.5802 29.6576 10.3076 29.9471Z" fill="#00B5FF"/>
<path d="M55.0842 36.8766C54.6639 36.585 54.1591 36.4809 53.6622 36.583C53.1568 36.687 52.7091 37.0049 52.4339 37.4551C50.1745 41.1505 41.782 53.218 28.644 53.3502C28.571 53.3509 28.4982 53.3513 28.4254 53.3513C15.1699 53.3513 6.70008 41.1841 4.4199 37.455C4.14468 37.0049 3.69711 36.687 3.19189 36.583C2.69512 36.4807 2.19009 36.585 1.76966 36.8767C0.91177 37.4718 0.672702 38.646 1.22537 39.5499C2.47438 41.5925 5.18984 45.575 9.34275 49.2972C11.9812 51.6619 14.7787 53.5319 17.6575 54.8552C21.1369 56.4545 24.7614 57.2654 28.4303 57.2654C28.5137 57.2654 28.5976 57.265 28.681 57.2642C32.3674 57.227 36.0045 56.373 39.4913 54.7258C42.3142 53.3922 45.0555 51.5316 47.6391 49.1954C51.7103 45.5141 54.3923 41.572 55.6286 39.5498C56.1812 38.646 55.9421 37.4717 55.0842 36.8766Z" fill="white"/>
<path d="M55.3336 17.0585C54.4625 17.0585 53.7537 17.7881 53.7537 18.6848V32.0242C53.7537 32.9209 54.4624 33.6505 55.3336 33.6505C56.2048 33.6505 56.9135 32.9209 56.9135 32.0242V18.6848C56.9135 17.7881 56.2047 17.0585 55.3336 17.0585Z" fill="white"/>
<path d="M55.3336 5.9574C54.4625 5.9574 53.7537 6.68696 53.7537 7.58367V11.6572C53.7537 12.5539 54.4624 13.2835 55.3336 13.2835C56.2048 13.2835 56.9135 12.5539 56.9135 11.6572V7.58367C56.9135 6.68696 56.2047 5.9574 55.3336 5.9574Z" fill="white"/>
<path d="M55.3336 0C54.4625 0 53.7537 0.729564 53.7537 1.62627V2.14441C53.7537 3.04118 54.4624 3.77068 55.3336 3.77068C56.2048 3.77068 56.9135 3.04111 56.9135 2.14441V1.62627C56.9135 0.729564 56.2047 0 55.3336 0Z" fill="white"/>
<path d="M3.15987 32.5424V19.203C3.15987 18.3062 2.45111 17.5767 1.57994 17.5767C0.708756 17.5767 0 18.3063 0 19.203V32.5424C0 33.4391 0.708756 34.1687 1.57994 34.1687C2.45111 34.1687 3.15987 33.4391 3.15987 32.5424Z" fill="white"/>
<path d="M1.57994 13.8021C2.45111 13.8021 3.15987 13.0725 3.15987 12.1758V8.10228C3.15987 7.20558 2.45111 6.47601 1.57994 6.47601C0.708756 6.47601 0 7.20558 0 8.10228V12.1758C0 13.0725 0.708756 13.8021 1.57994 13.8021Z" fill="white"/>
<path d="M1.57994 4.28886C2.45111 4.28886 3.15987 3.5593 3.15987 2.66259V2.14446C3.15987 1.24775 2.45111 0.518188 1.57994 0.518188C0.708756 0.518188 0 1.24769 0 2.1444V2.66253C0 3.5593 0.708756 4.28886 1.57994 4.28886Z" fill="white"/>
</svg>
