<svg width="61" height="56" viewBox="0 0 61 56" fill="none" xmlns="http://www.w3.org/2000/svg">
<path d="M59.9195 20.9936C59.8034 20.7929 59.5955 20.673 59.3639 20.6734L57.0023 20.6753H57.0023C56.8544 20.6754 56.7237 20.5769 56.6842 20.4357C56.2519 18.889 55.6775 17.3669 54.9771 15.9116C53.4242 12.6849 51.2864 9.82333 48.6232 7.40632C45.96 4.98924 42.9048 3.13788 39.5426 1.90359C36.0606 0.625334 32.4018 0.0686267 28.6674 0.248751C24.933 0.428875 21.3448 1.33521 18.0025 2.94254C14.7751 4.49458 11.9128 6.63135 9.49519 9.29352C7.07762 11.9557 5.22594 15.0097 3.99172 18.3707C3.45756 19.8252 3.04452 21.3305 2.76414 22.8446C2.70035 23.1888 2.92768 23.5239 3.27085 23.5916L5.36892 24.0054C5.37464 24.0066 5.38041 24.0076 5.38619 24.0086C5.54979 24.0364 5.71482 24.0006 5.85265 23.9069C5.99569 23.8098 6.09184 23.6624 6.12333 23.4921C8.18109 12.3607 17.5194 4.20539 28.8324 3.6598C39.6633 3.13726 49.6216 9.9583 53.049 20.247C53.0825 20.3474 53.0659 20.4545 53.0037 20.5409C52.9405 20.6285 52.8424 20.6789 52.7345 20.679L50.6133 20.6808C50.3813 20.681 50.1738 20.801 50.0581 21.0019C49.9425 21.2027 49.9428 21.4423 50.0589 21.6429L54.4413 29.2152C54.5574 29.4158 54.7654 29.5355 54.997 29.5352C55.2288 29.535 55.4362 29.415 55.5519 29.2142L59.9202 21.6347C60.0357 21.4338 60.0355 21.1941 59.9195 20.9936Z" fill="white"/>
<path d="M56.7358 32.3394L54.6377 31.9254C54.4682 31.892 54.2968 31.9271 54.1541 32.0239C54.0111 32.1212 53.9149 32.2685 53.8834 32.4388C51.8256 43.5701 42.4873 51.7256 31.1744 52.2712C20.3432 52.7933 10.3852 45.9726 6.9577 35.684C6.92428 35.5836 6.9408 35.4765 7.00298 35.3901C7.06615 35.3024 7.16422 35.2521 7.27217 35.252L9.39353 35.2503C9.6254 35.2501 9.83291 35.1301 9.94856 34.9292C10.0643 34.7284 10.064 34.4887 9.94794 34.2882L5.56546 26.7158C5.44932 26.5152 5.24155 26.3958 5.00981 26.3958C4.77801 26.396 4.57056 26.516 4.45485 26.7168L0.0866538 34.2963C-0.0290603 34.497 -0.028874 34.7367 0.0871506 34.9373C0.203237 35.138 0.410939 35.2576 0.642864 35.2575L3.00441 35.2556V35.2555C3.15205 35.2553 3.28292 35.3539 3.32242 35.4952C3.75485 37.0421 4.32919 38.5642 5.0295 40.0193C6.58248 43.2459 8.7203 46.1075 11.3835 48.5246C14.0466 50.9416 17.1018 52.793 20.4641 54.0273C22.0572 54.6121 23.6869 55.0458 25.3443 55.3271C27.3095 55.6606 29.3135 55.7798 31.3393 55.6821C35.0737 55.5019 38.6619 54.5957 42.0042 52.9884C45.2317 51.4362 48.094 49.2995 50.5115 46.6374C52.9291 43.9754 54.7807 40.9214 56.015 37.5602C56.5491 36.1059 56.9621 34.6007 57.2426 33.0862C57.3063 32.7421 57.079 32.4071 56.7358 32.3394Z" fill="white"/>
<path d="M27.2585 41.6567C27.306 41.4717 27.1911 41.284 27.0047 41.2424C20.7861 39.8547 16.3137 34.2197 16.3704 27.8436C16.4232 21.9085 20.2856 16.7496 25.8757 14.9879C26.1001 14.9171 26.3257 15.0953 26.3124 15.3303L26.2492 16.4542C26.2345 16.7141 26.5067 16.8924 26.7392 16.775L32.0524 14.0924C32.2847 13.9752 32.3029 13.6504 32.0852 13.5078L27.1067 10.2466C26.889 10.104 26.5985 10.2506 26.5839 10.5104L26.498 12.0358C26.4895 12.1858 26.3828 12.3111 26.2366 12.346C25.4266 12.5398 24.6278 12.7983 23.8556 13.117C21.9374 13.9089 20.211 15.0511 18.7243 16.5122C17.2377 17.9732 16.0655 19.6796 15.2402 21.5843C14.3855 23.5568 13.9423 25.6555 13.923 27.8221C13.9037 29.9887 14.3095 32.0948 15.129 34.0821C15.9205 36.0009 17.0621 37.7277 18.5224 39.2144C19.9828 40.7012 21.6886 41.8736 23.5926 42.6989C24.5027 43.0934 25.452 43.4039 26.4141 43.6216C26.5924 43.6619 26.7706 43.5532 26.8162 43.376L27.2585 41.6567Z" fill="#00B5FF"/>
<path d="M32.7495 14.2742C32.702 14.4591 32.8169 14.6468 33.0033 14.6884C39.222 16.0761 43.6943 21.7112 43.6375 28.0873C43.6286 29.0918 43.5108 30.0731 43.2937 31.0205C42.2284 35.6687 38.7787 39.4767 34.1374 40.9414C33.9108 41.0129 33.6822 40.8378 33.6956 40.6006L33.7589 39.4767C33.7735 39.2168 33.5013 39.0385 33.2689 39.1559L27.9555 41.8385C27.7232 41.9557 27.7049 42.2805 27.9226 42.4231L32.9012 45.6843C33.119 45.8269 33.4094 45.6803 33.4241 45.4204L33.5099 43.8951C33.5184 43.745 33.6251 43.6198 33.7713 43.5849C34.5813 43.3912 35.3801 43.1326 36.1523 42.8139C38.0707 42.022 39.7971 40.8797 41.2836 39.4188C42.7701 37.9578 43.9424 36.2513 44.7677 34.3466C45.1588 33.444 45.4637 32.5154 45.6813 31.5655C45.9392 30.4395 46.0745 29.284 46.0849 28.1088C46.1042 25.9421 45.6984 23.8359 44.8789 21.8488C44.0876 19.93 42.9459 18.2032 41.4856 16.7164C40.0252 15.2296 38.3194 14.0573 36.4154 13.2319C35.5052 12.8374 34.556 12.527 33.5939 12.3093C33.4156 12.2689 33.2374 12.3776 33.1918 12.5548L32.7495 14.2742Z" fill="#00B5FF"/>
</svg>
