<svg width="59" height="59" viewBox="0 0 59 59" fill="none" xmlns="http://www.w3.org/2000/svg">
<path d="M41.5716 27.3908C39.7936 28.4028 38.1524 28.9243 36.9054 29.2057C36.7808 29.2338 36.6519 29.1953 36.5575 29.101C36.3619 28.9055 36.1668 28.7061 35.9723 28.5028C33.3241 25.733 31.2672 22.7117 29.6612 19.6845C29.5068 19.3935 29.1263 19.3935 28.9719 19.6845C27.3659 22.7117 25.309 25.733 22.6608 28.5028C22.4663 28.7062 22.2712 28.9056 22.0756 29.101C21.9812 29.1953 21.8523 29.2338 21.7277 29.2057C20.4807 28.9242 18.8396 28.4027 17.0615 27.3908C15.4538 26.4757 14.1934 25.421 13.253 24.4882C12.9735 24.211 12.5342 24.4765 12.5909 24.8873L14.5099 38.7901C14.5399 39.0069 14.7081 39.1669 14.906 39.1669H29.3165H43.727C43.9249 39.1669 44.0932 39.0069 44.1231 38.7901L46.0421 24.8873C46.0988 24.4765 45.6596 24.211 45.3801 24.4882C44.4396 25.421 43.1793 26.4757 41.5716 27.3908Z" fill="#00B5FF"/>
<path d="M29.3167 58.6334C25.3595 58.6334 21.5201 57.8582 17.9049 56.329C14.4138 54.8525 11.2787 52.7387 8.58669 50.0468C5.89471 47.3547 3.78099 44.2196 2.30434 40.7284C0.775278 37.1134 0 33.2739 0 29.3167C0 25.3595 0.775278 21.5201 2.30434 17.9049C3.78099 14.4138 5.89465 11.2787 8.58669 8.58669C11.2787 5.89471 14.4138 3.78099 17.9049 2.30434C21.5201 0.775278 25.3595 0 29.3167 0C33.2739 0 37.1134 0.775278 40.7284 2.30434C44.2196 3.78099 47.3548 5.89465 50.0468 8.58669C52.7387 11.2787 54.8524 14.4138 56.329 17.9049C57.8582 21.5201 58.6334 25.3595 58.6334 29.3167C58.6334 33.2739 57.8582 37.1134 56.329 40.7284C54.8525 44.2196 52.7387 47.3548 50.0468 50.0468C47.3547 52.7387 44.2196 54.8524 40.7284 56.329C37.1134 57.8582 33.2739 58.6334 29.3167 58.6334ZM29.3167 2.48447C14.5213 2.48447 2.48447 14.5213 2.48447 29.3167C2.48447 44.1121 14.5213 56.149 29.3167 56.149C44.1121 56.149 56.149 44.1121 56.149 29.3167C56.149 14.5213 44.1121 2.48447 29.3167 2.48447Z" fill="white"/>
<path d="M29.3168 53.4626C26.0576 53.4626 22.8953 52.8241 19.9178 51.5647C17.0424 50.3485 14.4603 48.6077 12.2431 46.3904C10.0259 44.1731 8.28493 41.591 7.06878 38.7156C5.80947 35.7382 5.1709 32.576 5.1709 29.3167C5.1709 26.0575 5.80947 22.8952 7.06878 19.9177C8.28499 17.0423 10.0259 14.4601 12.2431 12.2429C14.4603 10.0257 17.0424 8.28481 19.9178 7.06866C22.8953 5.80935 26.0576 5.17078 29.3168 5.17078C32.5761 5.17078 35.7384 5.80935 38.7158 7.06866C41.5912 8.28487 44.1733 10.0257 46.3905 12.2429C48.6077 14.4601 50.3487 17.0423 51.5649 19.9177C52.8242 22.8952 53.4627 26.0575 53.4627 29.3167C53.4627 32.576 52.8242 35.7382 51.5649 38.7156C50.3487 41.591 48.6078 44.1732 46.3905 46.3904C44.1733 48.6076 41.5911 50.3485 38.7158 51.5647C35.7384 52.8241 32.5761 53.4626 29.3168 53.4626ZM29.3168 7.03413C17.0302 7.03413 7.03425 17.0301 7.03425 29.3167C7.03425 41.6033 17.0302 51.5993 29.3168 51.5993C41.6035 51.5993 51.5994 41.6033 51.5994 29.3167C51.5994 17.0301 41.6035 7.03413 29.3168 7.03413Z" fill="white"/>
</svg>
