<svg width="58" height="59" viewBox="0 0 58 59" fill="none" xmlns="http://www.w3.org/2000/svg">
<path d="M57.0923 5.62003C57.092 5.5396 57.09 5.4596 57.0862 5.38003C57.0851 5.35655 57.0836 5.3332 57.0821 5.30978C57.0787 5.25351 57.0744 5.19755 57.0693 5.14171C57.0652 5.09593 57.0603 5.05047 57.055 5.00506C57.051 4.97158 57.0468 4.93817 57.0422 4.90481C57.0332 4.83842 57.0229 4.77245 57.0115 4.7068C57.0093 4.6945 57.0071 4.68221 57.0049 4.66997C56.6077 2.48016 54.8777 0.750163 52.6879 0.35302C52.6757 0.350784 52.6634 0.348611 52.6511 0.346437C52.5855 0.335008 52.5195 0.324697 52.4531 0.315691C52.4198 0.311095 52.3864 0.306871 52.3528 0.302896C52.3074 0.297617 52.2619 0.29271 52.2162 0.288549C52.1604 0.283393 52.1044 0.27917 52.0481 0.275754C52.0247 0.274387 52.0013 0.272834 51.9779 0.271716C51.8983 0.267928 51.8183 0.265878 51.7379 0.265629C51.7348 0.265629 51.7318 0.265381 51.7288 0.265381H51.7197H5.37272H5.36366C5.36061 0.265381 5.35763 0.265629 5.35459 0.265629C5.27415 0.265878 5.19415 0.267928 5.11459 0.271716C5.09111 0.272772 5.06776 0.274325 5.04434 0.275754C4.98807 0.27917 4.9321 0.283455 4.87627 0.288549C4.83049 0.29271 4.78502 0.297617 4.73962 0.302896C4.70614 0.306871 4.67273 0.311095 4.63937 0.315691C4.57297 0.324697 4.50701 0.335008 4.44136 0.346437C4.42906 0.348611 4.41676 0.350784 4.40453 0.35302C3.30962 0.551592 2.32969 1.08339 1.57379 1.83923C1.47931 1.9337 1.38832 2.03171 1.30105 2.13296C0.864719 2.63935 0.521241 3.22786 0.297267 3.87202C0.207701 4.12966 0.137205 4.39618 0.0875775 4.66991C0.0853415 4.68214 0.0831676 4.69444 0.0809937 4.70674C0.0695652 4.77233 0.0592547 4.83829 0.0502485 4.90475C0.0457143 4.93804 0.0414285 4.97146 0.0374534 5.005C0.0321739 5.0504 0.0272671 5.09593 0.0231057 5.14165C0.0179504 5.19742 0.0137267 5.25345 0.0103106 5.30972C0.00962734 5.3214 0.00900613 5.33314 0.0083229 5.34488C0.00763967 5.35655 0.00683236 5.36829 0.00633547 5.38003C0.00447212 5.41984 0.00428579 5.46003 0.00329201 5.50003C0.00229822 5.54003 0.000372771 5.57984 0.000248547 5.62003C0.000248547 5.62307 0 5.62606 0 5.6291V5.6381V6.60127V51.2584V52.5744V52.843C0 55.8055 2.41018 58.2157 5.37266 58.2157H5.64117H6.95719H50.1352H51.4512C54.5667 58.2157 57.0924 55.69 57.0924 52.5745V51.2585V6.60127V5.6381V5.62904C57.0925 5.62606 57.0923 5.62307 57.0923 5.62003ZM54.608 50.99C54.608 53.6085 52.4853 55.7312 49.8668 55.7312H7.22583C4.60732 55.7312 2.48459 53.6085 2.48459 50.99V11.9528C2.48459 11.0895 3.1844 10.3897 4.0477 10.3897H53.0449C53.9082 10.3897 54.608 11.0895 54.608 11.9528V50.99ZM54.608 6.33276C54.608 7.19605 53.9082 7.89587 53.0449 7.89587H4.0477C3.1844 7.89587 2.48459 7.19605 2.48459 6.33276V5.90661C2.48459 4.1632 3.89788 2.74991 5.6413 2.74991H51.4513C53.1948 2.74991 54.608 4.1632 54.608 5.90661V6.33276Z" fill="white"/>
<path d="M32.372 28.7408C31.0187 28.3137 29.8385 28.6587 28.8605 29.6879C28.8012 29.7503 28.7454 29.8164 28.6905 29.8829C28.6387 29.9456 28.5904 30.011 28.5338 30.0839C28.419 29.9481 28.3161 29.8164 28.203 29.6943C27.6646 29.113 27.0204 28.7102 26.2253 28.6086C24.9965 28.4516 23.9465 28.8269 23.1384 29.7724C22.3303 30.718 22.0946 31.8351 22.2803 33.0473C22.3981 33.8157 22.7507 34.4855 23.2094 35.102C23.8117 35.9114 24.5467 36.5935 25.3035 37.2525C26.1959 38.0294 27.0938 38.8001 27.991 39.5714C28.3369 39.8688 28.7063 39.883 29.0374 39.5958C30.2104 38.5783 31.3863 37.5638 32.5448 36.5299C33.1278 36.0096 33.6508 35.4285 34.0794 34.7693C34.4862 34.1436 34.7581 33.4693 34.8227 32.7197C34.8251 32.6917 34.8347 32.6642 34.841 32.6366C34.841 32.4476 34.841 32.2586 34.841 32.0695C34.7993 31.8236 34.7761 31.5729 34.7131 31.3326C34.3809 30.0665 33.6405 29.1412 32.372 28.7408Z" fill="#00B5FF"/>
<path d="M45.0147 30.1161L41.922 29.7446C41.6059 28.5648 41.1429 27.4503 40.5467 26.4161L42.4695 23.9721C42.7634 23.5964 42.7302 23.0156 42.3905 22.6773L39.2035 19.4889C38.868 19.152 38.2858 19.116 37.9087 19.4099L35.4605 21.3354C34.4305 20.7393 33.3159 20.2763 32.1389 19.963L31.7688 16.8702C31.712 16.3975 31.2753 16.0107 30.7984 16.0107H26.2902C25.8133 16.0107 25.3767 16.3975 25.3212 16.8702L24.9497 19.963C23.7714 20.2777 22.6555 20.742 21.6255 21.3368L19.1787 19.414C18.8044 19.1201 18.2222 19.1547 17.8853 19.4916L14.6968 22.6815C14.3614 23.017 14.3267 23.5992 14.622 23.9763L16.5434 26.4217C15.9473 27.4531 15.4842 28.569 15.1696 29.7488L12.0782 30.1189C11.6054 30.1744 11.2173 30.611 11.2173 31.0893V35.5975C11.2173 36.0744 11.6041 36.5083 12.0782 36.5665L15.1709 36.938C15.487 38.1136 15.9486 39.2282 16.5447 40.2596L14.6234 42.7078C14.3309 43.0834 14.3641 43.6643 14.7024 44.0026L17.8853 47.1924C18.2222 47.5278 18.8044 47.5653 19.1787 47.2714L21.6269 45.3445C22.6583 45.9406 23.7729 46.405 24.9512 46.7183L25.3227 49.8097C25.3795 50.2838 25.8148 50.6692 26.2917 50.6692H30.7999C31.2781 50.6692 31.7134 50.2838 31.7689 49.8097L32.1404 46.7183C33.3202 46.4022 34.4347 45.9392 35.4647 45.3445L37.9129 47.2673C38.2885 47.5612 38.8694 47.5265 39.2063 47.1896L42.3934 43.9998C42.7316 43.6644 42.7663 43.0821 42.471 42.7037L40.5469 40.2583C41.1444 39.2269 41.606 38.1123 41.9221 36.9354L45.0135 36.5639C45.4876 36.507 45.8744 36.0745 45.8744 35.5949V31.0865C45.8756 30.6069 45.4902 30.173 45.0147 30.1161ZM28.5458 44.267C22.5109 44.267 17.6187 39.3747 17.6187 33.3399C17.6187 27.305 22.5109 22.4128 28.5458 22.4128C34.5806 22.4128 39.4728 27.305 39.4728 33.3399C39.4728 39.3747 34.5806 44.267 28.5458 44.267Z" fill="#00B5FF"/>
</svg>
