<svg width="59" height="57" viewBox="0 0 59 57" fill="none" xmlns="http://www.w3.org/2000/svg">
<path d="M50.479 23.7827C50.2897 23.5927 50.0262 23.5251 49.7744 23.6018C49.5226 23.6786 49.3351 23.8835 49.2726 24.15L49.0342 25.1675L13.225 15.9742L13.4634 14.9567C13.5259 14.6901 13.4502 14.4176 13.2608 14.2277C13.0715 14.0377 12.8082 13.9701 12.5564 14.0468L7.8455 15.4811C7.66762 15.5352 7.52973 15.6858 7.48557 15.8742C7.44147 16.0626 7.49712 16.2629 7.63091 16.397L11.1731 19.9501C11.3625 20.1399 11.6258 20.2076 11.8775 20.1309C12.1293 20.0542 12.317 19.8493 12.3794 19.5828L12.6179 18.5652L48.4271 27.7585L48.1887 28.7761C48.1262 29.0426 48.202 29.3151 48.3912 29.5051C48.5292 29.6434 48.7065 29.7169 48.8899 29.7169C48.9582 29.7169 49.0274 29.7067 49.0957 29.6859L53.807 28.2516C53.9847 28.1974 54.1227 28.0469 54.1667 27.8587C54.2108 27.6704 54.1552 27.4702 54.0215 27.3361L50.479 23.7827Z" fill="#00B5FF"/>
<path d="M4.98522 34.3235V11.1074C4.98522 10.3349 5.58565 9.70643 6.32372 9.70643H37.4283V7.86053H6.32372C4.61329 7.86053 3.22168 9.31712 3.22168 11.1074V34.3235C3.22168 36.1139 4.61329 37.5704 6.32372 37.5704H37.4283V35.7245H6.32372C5.58565 35.7245 4.98522 35.096 4.98522 34.3235Z" fill="white"/>
<path d="M58.6281 40.4737L58.6111 5.00174C58.6111 2.59298 56.7248 0.633423 54.4059 0.633423H41.6504C39.5934 0.633423 37.8779 2.17597 37.5165 4.20571V4.13217L4.20521 4.12354C1.88646 4.12354 0 6.09807 0 8.52509V43.834C0 46.261 1.88646 48.2355 4.20521 48.2355H15.3584V52.1108H8.40185C7.43129 52.1108 6.64173 52.9372 6.64173 53.9531V55.0646C6.64173 56.0805 7.43129 56.907 8.40185 56.907H46.2148C47.1853 56.907 47.975 56.0805 47.975 55.0646V53.9531C47.975 52.9372 47.1853 52.1108 46.2148 52.1108H39.2583V48.2355H50.4114C52.3987 48.2355 54.0672 46.7846 54.504 44.842H54.4228C56.7416 44.842 58.6281 42.8824 58.6281 40.4737ZM45.1934 3.92981H50.8668C51.1731 3.92981 51.4213 4.17808 51.4213 4.48435C51.4213 4.79062 51.1731 5.03888 50.8668 5.03888H45.1934C44.8871 5.03888 44.6389 4.79062 44.6389 4.48435C44.6389 4.17808 44.8872 3.92981 45.1934 3.92981ZM46.2115 53.9531L46.2155 55.0612L8.40527 55.0647L8.40185 53.9567L46.2115 53.9531ZM17.1219 52.1022V48.2355H37.4948V52.1022H17.1219ZM50.4115 46.3896H4.20521C2.85888 46.3896 1.76354 45.2432 1.76354 43.834V41.4871H37.5165V41.3645C37.9137 43.3474 39.6086 44.842 41.6335 44.842H52.6536C52.2791 45.751 51.4158 46.3896 50.4115 46.3896ZM46.5648 40.1153C46.5648 39.2578 47.2169 38.5619 48.0282 38.5418C48.8395 38.5619 49.4917 39.2578 49.4917 40.1153C49.4917 40.9728 48.8395 41.6686 48.0282 41.6888C47.2169 41.6686 46.5648 40.9728 46.5648 40.1153ZM56.4595 35.779H39.5968C39.3744 35.779 39.1942 35.5903 39.1943 35.3575L39.1974 28.8992C39.1975 28.7049 39.0706 28.5357 38.8902 28.4896L37.9319 28.2451C37.6784 28.1805 37.4341 28.3813 37.434 28.6542L37.4288 39.6412H1.76354V8.52509C1.76354 7.1159 2.85888 5.96944 4.20521 5.96944L37.4448 5.97801L37.4387 18.7635C37.4386 18.9579 37.5655 19.1271 37.7459 19.1731L38.7042 19.4176C38.9576 19.4823 39.202 19.2815 39.2021 19.0085L39.2064 10.073C39.2065 9.84043 39.3867 9.65192 39.6089 9.65192H56.4475C56.6697 9.65192 56.8499 9.84043 56.85 10.073L56.8621 35.3575C56.8622 35.5903 56.682 35.779 56.4595 35.779Z" fill="white"/>
</svg>
