<svg xmlns="http://www.w3.org/2000/svg" xmlns:xlink="http://www.w3.org/1999/xlink">

  <symbol id="lab2biz_logo"  viewBox="0 0 192 53" >
    <path d="M22.9611 45.3376L19.8618 52.4314H21.4828L23.7437 47.2154L25.9675 52.4314H27.5996L24.5102 45.3376H22.9611Z" fill="white"/>
    <path d="M31.758 45.3376L28.6611 52.4314H30.2499L30.9035 50.9697H34.1801L34.8089 52.4314H36.3977L33.3095 45.3376H31.758ZM31.4653 49.6536L32.543 47.2178L33.6134 49.6536H31.4653Z" fill="white"/>
    <path d="M41.8752 48.2117C41.4461 48.0796 40.893 48.0141 40.2158 48.0141H39.8834V46.6536H42.5524V45.3376H38.3555V52.4314H40.604C41.27 52.4314 41.7909 52.3389 42.1679 52.1537C42.5449 51.9685 42.8401 51.729 43.0547 51.4351C43.2692 51.1413 43.3771 50.7462 43.3771 50.2512C43.3771 49.7524 43.2345 49.3215 42.948 48.9561C42.6615 48.5919 42.3043 48.3438 41.8752 48.2117ZM41.5912 50.9018C41.4052 51.0623 40.9637 51.1425 40.2654 51.1425H39.8834V49.2178H40.1997C41.3134 49.2178 41.8703 49.5623 41.8703 50.2499C41.869 50.524 41.7772 50.7413 41.5912 50.9018Z" fill="white"/>
    <path d="M52.2229 46.2486C51.4056 45.5227 50.4283 45.1585 49.2923 45.1585C48.5419 45.1585 47.8424 45.3252 47.1925 45.6573C46.5427 45.9906 46.0317 46.4412 45.6609 47.0104C45.29 47.5795 45.104 48.203 45.104 48.882C45.104 49.8943 45.5021 50.7697 46.2996 51.5055C47.0971 52.2413 48.0979 52.6104 49.3034 52.6104C50.4543 52.6104 51.4329 52.2524 52.239 51.5351C53.0452 50.8178 53.4495 49.9425 53.4495 48.9067C53.4495 47.861 53.0402 46.9746 52.2229 46.2486ZM51.1563 50.6079C50.6466 51.0709 50.0289 51.3018 49.3034 51.3018C48.6622 51.3018 48.0942 51.1227 47.5981 50.766C46.9606 50.3092 46.6419 49.6894 46.6419 48.9042C46.6419 48.2005 46.8949 47.6202 47.4009 47.1635C47.9069 46.7067 48.532 46.4783 49.2749 46.4783C50.0103 46.4783 50.6354 46.7116 51.1489 47.1795C51.6623 47.6474 51.9191 48.219 51.9191 48.8943C51.9203 49.5746 51.666 50.145 51.1563 50.6079Z" fill="white"/>
    <path d="M59.1857 45.5511C58.7988 45.4079 58.1663 45.3363 57.2894 45.3363H55.6685V52.4301H57.1964V49.4264C57.9753 49.4264 58.5123 49.3894 58.8062 49.3153C59.3085 49.1869 59.7054 48.9585 59.9993 48.6301C60.292 48.3017 60.4384 47.8906 60.4384 47.3955C60.4384 46.9486 60.3268 46.5659 60.1023 46.2449C59.879 45.9264 59.5727 45.6943 59.1857 45.5511ZM58.831 47.798C58.7455 47.9091 58.6276 47.9894 58.4788 48.0375C58.33 48.0857 58.0633 48.1104 57.6813 48.1104H57.1952V46.6536H57.6268C58.0993 46.6536 58.4242 46.7005 58.5979 46.7943C58.8385 46.9202 58.9575 47.1202 58.9575 47.3943C58.9588 47.5523 58.9166 47.6869 58.831 47.798Z" fill="white"/>
    <path d="M65.1662 45.3376L62.0693 52.4314H63.6581L64.3117 50.9697H67.5883L68.2171 52.4314H69.8059L66.7177 45.3376H65.1662ZM64.8735 49.6536L65.9512 47.2178L67.0216 49.6536H64.8735Z" fill="white"/>
    <path d="M70.9768 46.6684H72.4018V52.4314H73.9521V46.6684H75.4143V45.3376H70.9768V46.6684Z" fill="white"/>
    <path d="M83.9665 46.2486C83.1492 45.5227 82.1719 45.1585 81.0359 45.1585C80.2855 45.1585 79.5861 45.3252 78.9362 45.6573C78.2863 45.9906 77.7753 46.4412 77.4045 47.0104C77.0337 47.5795 76.8477 48.203 76.8477 48.882C76.8477 49.8943 77.2458 50.7697 78.0432 51.5055C78.8407 52.2413 79.8416 52.6104 81.047 52.6104C82.198 52.6104 83.1765 52.2524 83.9827 51.5351C84.7888 50.8178 85.1919 49.9425 85.1919 48.9067C85.1931 47.861 84.7838 46.9746 83.9665 46.2486ZM82.8987 50.6079C82.389 51.0709 81.7713 51.3018 81.0458 51.3018C80.4046 51.3018 79.8366 51.1227 79.3405 50.766C78.703 50.3092 78.3843 49.6894 78.3843 48.9042C78.3843 48.2005 78.6373 47.6202 79.1433 47.1635C79.6493 46.7067 80.2744 46.4783 81.0173 46.4783C81.7527 46.4783 82.3778 46.7116 82.8913 47.1795C83.4047 47.6474 83.6614 48.219 83.6614 48.8943C83.6639 49.5746 83.4097 50.145 82.8987 50.6079Z" fill="white"/>
    <path d="M90.9289 45.5511C90.5419 45.4079 89.9094 45.3363 89.0326 45.3363H87.4116V52.4301H88.9396V49.4264C89.7184 49.4264 90.2554 49.3894 90.5494 49.3153C91.0517 49.1869 91.4485 48.9585 91.7425 48.6301C92.0352 48.3017 92.1815 47.8906 92.1815 47.3955C92.1815 46.9486 92.0699 46.5659 91.8454 46.2449C91.6209 45.9264 91.3158 45.6943 90.9289 45.5511ZM90.5729 47.798C90.4874 47.9091 90.3695 47.9894 90.2207 48.0375C90.0719 48.0857 89.8065 48.1104 89.4233 48.1104H88.9371V46.6536H89.3687C89.8412 46.6536 90.1662 46.7005 90.3398 46.7943C90.5804 46.9202 90.6995 47.1202 90.6995 47.3943C90.7019 47.5523 90.6585 47.6869 90.5729 47.798Z" fill="white"/>
    <path d="M95.9821 49.9228V45.3376H94.4541V52.4314H95.7824L98.7775 47.9894V52.4314H100.305V45.3376H99.0169L95.9821 49.9228Z" fill="white"/>
    <path d="M104.693 45.3906C104.533 45.4029 104.317 45.4523 104.047 45.5375C103.777 45.6227 103.539 45.7548 103.333 45.9326C103.127 46.1116 102.969 46.3289 102.859 46.5857C102.749 46.8425 102.693 47.1449 102.693 47.4931C102.693 48.4672 103.22 49.0881 104.273 49.3548L102.456 52.4301H104.125L105.739 49.5758H106.121V52.4301H107.649V45.3363H106.029C105.298 45.3597 104.853 45.377 104.693 45.3906ZM106.121 48.2597H105.642C105.178 48.2597 104.841 48.2017 104.63 48.0857C104.419 47.9696 104.315 47.7659 104.315 47.4733C104.315 47.277 104.367 47.1128 104.472 46.9795C104.578 46.8462 104.714 46.7597 104.88 46.719C105.047 46.6783 105.321 46.6585 105.703 46.6585H106.122V48.2597H106.121Z" fill="white"/>
    <path d="M117.691 48.2117C117.262 48.0796 116.708 48.0141 116.031 48.0141H115.698V46.6536H118.367V45.3376H114.168V52.4314H116.417C117.083 52.4314 117.604 52.3389 117.981 52.1537C118.358 51.9685 118.653 51.729 118.868 51.4351C119.082 51.1413 119.19 50.7462 119.19 50.2512C119.19 49.7524 119.048 49.3215 118.761 48.9561C118.478 48.5919 118.12 48.3438 117.691 48.2117ZM117.407 50.9018C117.221 51.0623 116.779 51.1425 116.08 51.1425H115.698V49.2178H116.014C117.128 49.2178 117.685 49.5623 117.685 50.2499C117.686 50.524 117.593 50.7413 117.407 50.9018Z" fill="white"/>
    <path d="M122.84 49.9228V45.3376H121.312V52.4314H122.64L125.634 47.9894V52.4314H127.163V45.3376H125.875L122.84 49.9228Z" fill="white"/>
    <path d="M132.886 48.5252C133.345 48.2549 133.624 47.9993 133.724 47.7586C133.825 47.5178 133.874 47.2697 133.874 47.0153C133.874 46.4437 133.651 45.9882 133.205 45.6511C132.758 45.3141 132.208 45.145 131.552 45.145C131.279 45.145 130.98 45.1832 130.655 45.2585C130.33 45.3338 129.926 45.5647 129.441 45.9511L130.341 46.8388C130.703 46.54 131.055 46.3906 131.398 46.3906C131.687 46.3906 131.917 46.4647 132.093 46.6129C132.268 46.761 132.356 46.9623 132.356 47.2153C132.356 47.4919 132.252 47.7116 132.043 47.8758C131.833 48.04 131.527 48.1215 131.122 48.1215H130.795V49.3277H131.122C131.803 49.3277 132.251 49.424 132.468 49.6166C132.685 49.8092 132.793 50.0524 132.793 50.345C132.793 50.6438 132.681 50.8833 132.459 51.0635C132.237 51.2438 131.945 51.3339 131.584 51.3339C131.041 51.3339 130.566 51.0845 130.161 50.587L128.993 51.3438C129.456 51.8709 129.883 52.2141 130.278 52.3734C130.672 52.5327 131.116 52.6117 131.611 52.6117C132.399 52.6117 133.042 52.4117 133.543 52.0117C134.044 51.6117 134.295 51.082 134.295 50.4228C134.294 49.5265 133.825 48.8944 132.886 48.5252Z" fill="white"/>
    <path d="M140.759 48.0141H138.079V45.3376H136.528V52.4314H138.079V49.3203H140.759V52.4314H142.303V45.3376H140.759V48.0141Z" fill="white"/>
    <path d="M144.926 52.4314H149.309V51.1043H146.443V49.2388H149.309V47.9413H146.443V46.6586H149.309V45.3376H144.926V52.4314Z" fill="white"/>
    <path d="M153.434 47.1611C153.96 46.6981 154.606 46.466 155.372 46.466C156.282 46.466 157.099 46.8055 157.827 47.4845L158.896 46.5845C158.452 46.129 157.924 45.7771 157.31 45.5302C156.696 45.2833 156.058 45.1598 155.396 45.1598C154.617 45.1598 153.89 45.3265 153.216 45.6611C152.541 45.9956 152.023 46.4376 151.66 46.987C151.298 47.5364 151.117 48.1648 151.117 48.8722C151.117 49.9648 151.515 50.8611 152.31 51.5611C153.105 52.2599 154.127 52.6105 155.375 52.6105C156.052 52.6105 156.654 52.5117 157.182 52.3142C157.709 52.1166 158.27 51.7623 158.864 51.25L157.828 50.2944C157.388 50.6808 156.985 50.9475 156.618 51.0932C156.25 51.2401 155.845 51.3129 155.401 51.3129C154.881 51.3129 154.409 51.208 153.983 50.9994C153.558 50.7895 153.229 50.5018 152.996 50.1352C152.763 49.7685 152.648 49.3487 152.648 48.8747C152.645 48.1956 152.908 47.624 153.434 47.1611Z" fill="white"/>
    <path d="M163.465 45.3376L160.368 52.4314H161.956L162.61 50.9697H165.887L166.516 52.4314H168.104L165.016 45.3376H163.465ZM163.172 49.6536L164.25 47.2178L165.32 49.6536H163.172Z" fill="white"/>
    <path d="M103.059 23.3152C104.062 22.5498 105.03 21.7671 105.968 20.9683C106.903 20.1695 107.732 19.288 108.451 18.3226C109.169 17.3572 109.747 16.2843 110.181 15.1028C110.615 13.9214 110.834 12.5818 110.834 11.0843C110.834 9.58676 110.516 8.21392 109.881 6.96576C109.246 5.71761 108.284 4.63612 106.997 3.72007C105.71 2.80525 104.097 2.09784 102.157 1.59784C100.217 1.09907 97.9265 0.84845 95.286 0.84845C92.0081 0.84845 89.0749 1.31512 86.4841 2.24599C83.892 3.17809 81.6448 4.45958 79.7385 6.09045L81.9957 9.08553C83.902 7.45465 85.8826 6.29786 87.9389 5.61514C89.9952 4.93365 92.2772 4.59168 94.785 4.59168C97.5606 4.59168 99.633 5.22378 101.005 6.48922C102.375 7.75466 103.061 9.4522 103.061 11.5818C103.061 13.2127 102.585 14.6522 101.631 15.9004C100.677 17.1485 99.566 18.2053 98.296 19.0708L80.2371 32.8005V36.7943H111.333V33.0498H90.268L103.059 23.3152Z" fill="white"/>
    <path d="M66.1309 35.9474C66.1867 35.9301 66.2425 35.914 66.2983 35.8968C68.1872 35.298 69.8007 34.4325 71.1377 33.3004C72.4746 32.1696 73.5028 30.8041 74.2221 29.2066C74.9402 27.6091 75.2999 25.8115 75.2999 23.814C75.2999 21.8164 74.9402 20.0201 74.2221 18.4214C73.5028 16.8238 72.4746 15.4596 71.1377 14.3275C69.7995 13.1966 68.1859 12.33 66.2983 11.7312C64.5223 11.1682 62.5628 10.8695 60.4184 10.8361C60.2807 10.8337 60.1431 10.8324 60.0029 10.8324H57.9379H53.7336V1.84596H46.7114V36.7943H54.2656H60.0017C62.2428 36.7955 64.2842 36.5116 66.1309 35.9474ZM53.7336 33.3004V14.3287H60.0029C61.139 14.3287 62.1845 14.5041 63.1382 14.8534C64.0907 15.2028 64.9105 15.7608 65.5963 16.5263C66.281 17.293 66.8167 18.2732 67.2012 19.472C67.5857 20.6707 67.7779 22.1177 67.7779 23.8152C67.7779 25.5127 67.5857 26.9609 67.2012 28.1584C66.8167 29.3572 66.281 30.3387 65.5963 31.1041C64.9105 31.8708 64.092 32.4276 63.1382 32.777C62.1857 33.1264 61.1402 33.3017 60.0029 33.3017H53.7336V33.3004Z" fill="white"/>
    <path d="M144.797 18.4226C144.077 16.825 143.049 15.4608 141.712 14.3287C140.374 13.1979 138.761 12.3312 136.873 11.7324C135.706 11.362 134.46 11.1065 133.134 10.9657C132.336 10.8806 131.509 10.8373 130.653 10.8349C130.628 10.8349 130.604 10.8349 130.579 10.8349H124.31V1.84842H117.287V36.7967H124.798H130.579C132.801 36.7967 134.83 36.5177 136.665 35.9622C136.734 35.9412 136.804 35.9202 136.873 35.8992C138.762 35.3004 140.375 34.435 141.712 33.3029C143.049 32.172 144.077 30.8066 144.797 29.209C145.515 27.6115 145.875 25.814 145.875 23.8164C145.875 21.8189 145.515 20.0201 144.797 18.4226ZM137.775 28.1584C137.39 29.3572 136.854 30.3387 136.17 31.1041C135.484 31.8708 134.665 32.4276 133.712 32.777C132.759 33.1263 131.714 33.3017 130.576 33.3017H124.307V14.3287H130.576C131.712 14.3287 132.758 14.504 133.712 14.8534C134.664 15.2028 135.484 15.7608 136.17 16.5263C136.854 17.2929 137.39 18.2732 137.775 19.472C138.159 20.6707 138.351 22.1177 138.351 23.8152C138.351 25.5127 138.158 26.9597 137.775 28.1584Z" fill="white"/>
    <path d="M40.9332 36.7955V20.3189C40.9332 18.7547 40.6405 17.3325 40.0551 16.0498C39.4697 14.7683 38.609 13.6621 37.4717 12.73C36.3344 11.7991 34.9466 11.0819 33.3083 10.5831C31.67 10.0843 29.7799 9.83371 27.6405 9.83371C26.838 9.83371 25.9773 9.90038 25.0571 10.0337C24.1368 10.167 23.2091 10.3584 22.274 10.6078C21.3376 10.8572 20.4261 11.1658 19.5406 11.5312C18.6538 11.8979 17.8427 12.33 17.1085 12.8288L18.8634 15.8239C19.9994 15.0584 21.2868 14.451 22.7255 14.0016C24.1629 13.5522 25.635 13.3275 27.1394 13.3275C29.1461 13.3275 30.7758 13.8942 32.0296 15.0251C33.2835 16.1572 33.911 17.9214 33.911 20.3177H26.8889C22.341 20.3177 18.9899 21.0004 16.8331 22.3646C14.6764 23.7301 13.5986 25.793 13.5986 28.556C13.5986 31.319 14.6764 33.382 16.8331 34.7474C18.9899 36.1128 22.341 36.7943 26.8889 36.7943H40.9332V36.7955ZM21.1218 28.5572C21.1218 25.3955 23.0442 23.814 26.8901 23.814H33.9123V33.3005H26.8901C23.0442 33.3005 21.1218 31.7202 21.1218 28.5572Z" fill="#00B5FF"/>
    <path d="M159.163 12.5374H152.141V36.7955H159.163V12.5374Z" fill="#00B5FF"/>
    <path d="M174.195 33.3004L191.499 14.8275V10.8337H166.421V14.3288H183.223L165.92 32.8004V36.7955H192V33.3004H174.195Z" fill="#00B5FF"/>
    <path d="M159.123 1.79654H152.177V8.71015H159.123V1.79654Z" fill="#00B5FF"/>
    <path d="M7.85615 1.79654H0.833984V36.0547H7.85615V1.79654Z" fill="#00B5FF"/>
  </symbol>
  
  <symbol id="crown"  viewBox="0 0 59 59" >
    <path d="M41.5716 27.3908C39.7936 28.4028 38.1524 28.9243 36.9054 29.2057C36.7808 29.2338 36.6519 29.1953 36.5575 29.101C36.3619 28.9055 36.1668 28.7061 35.9723 28.5028C33.3241 25.733 31.2672 22.7117 29.6612 19.6845C29.5068 19.3935 29.1263 19.3935 28.9719 19.6845C27.3659 22.7117 25.309 25.733 22.6608 28.5028C22.4663 28.7062 22.2712 28.9056 22.0756 29.101C21.9812 29.1953 21.8523 29.2338 21.7277 29.2057C20.4807 28.9242 18.8396 28.4027 17.0615 27.3908C15.4538 26.4757 14.1934 25.421 13.253 24.4882C12.9735 24.211 12.5342 24.4765 12.5909 24.8873L14.5099 38.7901C14.5399 39.0069 14.7081 39.1669 14.906 39.1669H29.3165H43.727C43.9249 39.1669 44.0932 39.0069 44.1231 38.7901L46.0421 24.8873C46.0988 24.4765 45.6596 24.211 45.3801 24.4882C44.4396 25.421 43.1793 26.4757 41.5716 27.3908Z" fill="#00B5FF"/>
    <path d="M29.3167 58.6334C25.3595 58.6334 21.5201 57.8582 17.9049 56.329C14.4138 54.8525 11.2787 52.7387 8.58669 50.0468C5.89471 47.3547 3.78099 44.2196 2.30434 40.7284C0.775278 37.1134 0 33.2739 0 29.3167C0 25.3595 0.775278 21.5201 2.30434 17.9049C3.78099 14.4138 5.89465 11.2787 8.58669 8.58669C11.2787 5.89471 14.4138 3.78099 17.9049 2.30434C21.5201 0.775278 25.3595 0 29.3167 0C33.2739 0 37.1134 0.775278 40.7284 2.30434C44.2196 3.78099 47.3548 5.89465 50.0468 8.58669C52.7387 11.2787 54.8524 14.4138 56.329 17.9049C57.8582 21.5201 58.6334 25.3595 58.6334 29.3167C58.6334 33.2739 57.8582 37.1134 56.329 40.7284C54.8525 44.2196 52.7387 47.3548 50.0468 50.0468C47.3547 52.7387 44.2196 54.8524 40.7284 56.329C37.1134 57.8582 33.2739 58.6334 29.3167 58.6334ZM29.3167 2.48447C14.5213 2.48447 2.48447 14.5213 2.48447 29.3167C2.48447 44.1121 14.5213 56.149 29.3167 56.149C44.1121 56.149 56.149 44.1121 56.149 29.3167C56.149 14.5213 44.1121 2.48447 29.3167 2.48447Z" fill="white"/>
    <path d="M29.3168 53.4626C26.0576 53.4626 22.8953 52.8241 19.9178 51.5647C17.0424 50.3485 14.4603 48.6077 12.2431 46.3904C10.0259 44.1731 8.28493 41.591 7.06878 38.7156C5.80947 35.7382 5.1709 32.576 5.1709 29.3167C5.1709 26.0575 5.80947 22.8952 7.06878 19.9177C8.28499 17.0423 10.0259 14.4601 12.2431 12.2429C14.4603 10.0257 17.0424 8.28481 19.9178 7.06866C22.8953 5.80935 26.0576 5.17078 29.3168 5.17078C32.5761 5.17078 35.7384 5.80935 38.7158 7.06866C41.5912 8.28487 44.1733 10.0257 46.3905 12.2429C48.6077 14.4601 50.3487 17.0423 51.5649 19.9177C52.8242 22.8952 53.4627 26.0575 53.4627 29.3167C53.4627 32.576 52.8242 35.7382 51.5649 38.7156C50.3487 41.591 48.6078 44.1732 46.3905 46.3904C44.1733 48.6076 41.5911 50.3485 38.7158 51.5647C35.7384 52.8241 32.5761 53.4626 29.3168 53.4626ZM29.3168 7.03413C17.0302 7.03413 7.03425 17.0301 7.03425 29.3167C7.03425 41.6033 17.0302 51.5993 29.3168 51.5993C41.6035 51.5993 51.5994 41.6033 51.5994 29.3167C51.5994 17.0301 41.6035 7.03413 29.3168 7.03413Z" fill="white"/>
  </symbol>
  
  <symbol id="pc-mobile"  viewBox="0 0 59 57" >
    <path d="M50.479 23.7827C50.2897 23.5927 50.0262 23.5251 49.7744 23.6018C49.5226 23.6786 49.3351 23.8835 49.2726 24.15L49.0342 25.1675L13.225 15.9742L13.4634 14.9567C13.5259 14.6901 13.4502 14.4176 13.2608 14.2277C13.0715 14.0377 12.8082 13.9701 12.5564 14.0468L7.8455 15.4811C7.66762 15.5352 7.52973 15.6858 7.48557 15.8742C7.44147 16.0626 7.49712 16.2629 7.63091 16.397L11.1731 19.9501C11.3625 20.1399 11.6258 20.2076 11.8775 20.1309C12.1293 20.0542 12.317 19.8493 12.3794 19.5828L12.6179 18.5652L48.4271 27.7585L48.1887 28.7761C48.1262 29.0426 48.202 29.3151 48.3912 29.5051C48.5292 29.6434 48.7065 29.7169 48.8899 29.7169C48.9582 29.7169 49.0274 29.7067 49.0957 29.6859L53.807 28.2516C53.9847 28.1974 54.1227 28.0469 54.1667 27.8587C54.2108 27.6704 54.1552 27.4702 54.0215 27.3361L50.479 23.7827Z" fill="#00B5FF"/>
    <path d="M4.98522 34.3235V11.1074C4.98522 10.3349 5.58565 9.70643 6.32372 9.70643H37.4283V7.86053H6.32372C4.61329 7.86053 3.22168 9.31712 3.22168 11.1074V34.3235C3.22168 36.1139 4.61329 37.5704 6.32372 37.5704H37.4283V35.7245H6.32372C5.58565 35.7245 4.98522 35.096 4.98522 34.3235Z" fill="white"/>
    <path d="M58.6281 40.4737L58.6111 5.00174C58.6111 2.59298 56.7248 0.633423 54.4059 0.633423H41.6504C39.5934 0.633423 37.8779 2.17597 37.5165 4.20571V4.13217L4.20521 4.12354C1.88646 4.12354 0 6.09807 0 8.52509V43.834C0 46.261 1.88646 48.2355 4.20521 48.2355H15.3584V52.1108H8.40185C7.43129 52.1108 6.64173 52.9372 6.64173 53.9531V55.0646C6.64173 56.0805 7.43129 56.907 8.40185 56.907H46.2148C47.1853 56.907 47.975 56.0805 47.975 55.0646V53.9531C47.975 52.9372 47.1853 52.1108 46.2148 52.1108H39.2583V48.2355H50.4114C52.3987 48.2355 54.0672 46.7846 54.504 44.842H54.4228C56.7416 44.842 58.6281 42.8824 58.6281 40.4737ZM45.1934 3.92981H50.8668C51.1731 3.92981 51.4213 4.17808 51.4213 4.48435C51.4213 4.79062 51.1731 5.03888 50.8668 5.03888H45.1934C44.8871 5.03888 44.6389 4.79062 44.6389 4.48435C44.6389 4.17808 44.8872 3.92981 45.1934 3.92981ZM46.2115 53.9531L46.2155 55.0612L8.40527 55.0647L8.40185 53.9567L46.2115 53.9531ZM17.1219 52.1022V48.2355H37.4948V52.1022H17.1219ZM50.4115 46.3896H4.20521C2.85888 46.3896 1.76354 45.2432 1.76354 43.834V41.4871H37.5165V41.3645C37.9137 43.3474 39.6086 44.842 41.6335 44.842H52.6536C52.2791 45.751 51.4158 46.3896 50.4115 46.3896ZM46.5648 40.1153C46.5648 39.2578 47.2169 38.5619 48.0282 38.5418C48.8395 38.5619 49.4917 39.2578 49.4917 40.1153C49.4917 40.9728 48.8395 41.6686 48.0282 41.6888C47.2169 41.6686 46.5648 40.9728 46.5648 40.1153ZM56.4595 35.779H39.5968C39.3744 35.779 39.1942 35.5903 39.1943 35.3575L39.1974 28.8992C39.1975 28.7049 39.0706 28.5357 38.8902 28.4896L37.9319 28.2451C37.6784 28.1805 37.4341 28.3813 37.434 28.6542L37.4288 39.6412H1.76354V8.52509C1.76354 7.1159 2.85888 5.96944 4.20521 5.96944L37.4448 5.97801L37.4387 18.7635C37.4386 18.9579 37.5655 19.1271 37.7459 19.1731L38.7042 19.4176C38.9576 19.4823 39.202 19.2815 39.2021 19.0085L39.2064 10.073C39.2065 9.84043 39.3867 9.65192 39.6089 9.65192H56.4475C56.6697 9.65192 56.8499 9.84043 56.85 10.073L56.8621 35.3575C56.8622 35.5903 56.682 35.779 56.4595 35.779Z" fill="white"/>
  </symbol>
  
  <symbol id="seo-friend"  viewBox="0 0 59 55" >
    <path d="M17.2574 19.741C17.2574 15.9882 16.1752 13.0216 9.25997 11.2568C5.84315 10.3855 5.09377 9.63353 5.09377 8.13807C5.09377 6.46646 6.1601 5.51453 8.26432 5.51453C10.8738 5.51453 11.6727 6.81093 12.0061 7.99124C12.0954 8.30745 12.3135 8.51142 12.5532 8.51142H15.8499C16.2364 8.51142 16.518 7.99478 16.4245 7.46167C15.9136 4.54814 13.9574 0.939453 8.40389 0.939453C4.10166 0.939453 0.602533 3.57988 0.602533 8.74651C0.602533 12.2171 1.75079 15.1325 8.06681 16.6682C11.9021 17.5937 12.7403 18.5984 12.7403 20.3818C12.7403 22.0506 11.922 23.2785 9.09339 23.2785C6.31029 23.2785 5.02451 22.033 4.43122 20.091C4.33675 19.7818 4.12545 19.578 3.8883 19.578H0.605017C0.212657 19.578 -0.0705719 20.1103 0.0341484 20.6478C0.838743 24.7787 3.42818 27.8491 8.67774 27.8491C14.7817 27.8491 17.2574 24.2257 17.2574 19.741Z" fill="white"/>
    <path d="M36.4505 23.2644C36.5019 22.7569 36.2248 22.3024 35.8641 22.3024H25.8461C25.5189 22.3024 25.2537 21.9254 25.2537 21.4602V17.2556C25.2537 16.7905 25.5189 16.4135 25.8461 16.4135H34.8184C35.1456 16.4135 35.4108 16.0364 35.4108 15.5713V12.2278C35.4108 11.7627 35.1456 11.3856 34.8184 11.3856H25.8461C25.5189 11.3856 25.2537 11.0086 25.2537 10.5435V7.32763C25.2537 6.86254 25.5189 6.48546 25.8461 6.48546H35.3672C35.6944 6.48546 35.9596 6.10844 35.9596 5.64329V2.29981C35.9596 1.83472 35.6944 1.45764 35.3672 1.45764H21.4293C21.1021 1.45764 20.8369 1.83466 20.8369 2.29981V26.4878C20.8369 26.9529 21.1021 27.33 21.4293 27.33H35.5258C35.8204 27.33 36.0703 27.0223 36.1122 26.6077L36.4505 23.2644Z" fill="white"/>
    <path d="M48.5131 27.8814C55.1327 27.8814 58.4972 21.475 58.4972 14.3046C58.4972 7.24883 55.0729 0.907043 48.7178 0.907043C42.5488 0.907043 38.8154 7.21647 38.8154 14.3325C38.8154 21.885 42.3409 27.8814 48.5131 27.8814ZM48.5854 5.80989C52.2688 5.80989 53.8405 9.79417 53.8405 14.3781C53.8405 18.584 52.428 22.9786 48.7632 22.9786C45.2163 22.9786 43.4719 19.1472 43.4719 14.2547C43.4719 9.89423 45.0426 5.80989 48.5854 5.80989Z" fill="white"/>
    <path d="M48.2997 39.6935H47.2865C47.018 39.6935 46.8003 39.9809 46.8003 40.3355V46.9353C46.8003 47.2899 47.018 47.5774 47.2865 47.5774H48.2879C50.0471 47.5774 50.8247 45.8496 50.8247 43.4899C50.8247 41.5106 50.0966 39.6935 48.2997 39.6935Z" fill="#00B5FF"/>
    <path d="M55.2648 33.0188H3.24447C1.45261 33.0188 0 34.3682 0 36.0328V51.1228C0 52.7874 1.45261 54.1368 3.24447 54.1368H55.2648C57.0566 54.1368 58.5092 52.7874 58.5092 51.1228V36.0328C58.5092 34.3682 57.0566 33.0188 55.2648 33.0188ZM12.0399 39.0824C12.0399 39.437 11.8222 39.7244 11.5536 39.7244H8.05868C7.79017 39.7244 7.57247 40.0119 7.57247 40.3665V42.0512C7.57247 42.4058 7.79017 42.6933 8.05868 42.6933H11.271C11.5395 42.6933 11.7572 42.9807 11.7572 43.3353V44.1986C11.7572 44.5532 11.5395 44.8406 11.271 44.8406H8.05868C7.79017 44.8406 7.57247 45.1281 7.57247 45.4827V49.0518C7.57247 49.4063 7.35477 49.6938 7.08626 49.6938H6.12148C5.85297 49.6938 5.63527 49.4063 5.63527 49.0518V38.2191C5.63527 37.8645 5.85297 37.5771 6.12148 37.5771H11.5536C11.8221 37.5771 12.0398 37.8645 12.0398 38.2191V39.0824H12.0399ZM19.8446 44.2415C20.159 44.6678 20.4304 45.4211 20.4304 46.7856V47.3839C20.4304 47.9135 20.4327 48.4909 20.4689 48.986C20.4966 49.3647 20.2744 49.6939 19.9862 49.6939H19.0541C18.8177 49.6939 18.6148 49.4702 18.5749 49.1626C18.5058 48.6298 18.4901 47.9001 18.4901 46.9732V46.7962C18.4901 45.4713 18.2368 44.8443 16.758 44.8443H15.9392C15.6707 44.8443 15.453 45.1318 15.453 45.4864V49.0519C15.453 49.4065 15.2353 49.694 14.9668 49.694H14.0005C13.732 49.694 13.5143 49.4065 13.5143 49.0519V38.2191C13.5143 37.8645 13.732 37.5771 14.0005 37.5771H17.546C19.5467 37.5771 20.6237 39.0323 20.6237 40.9036C20.6237 42.0446 20.2937 42.8183 19.8677 43.303C19.6539 43.5462 19.6477 43.9746 19.8446 44.2415ZM24.3751 49.0519C24.3751 49.4065 24.1574 49.6939 23.8889 49.6939H22.8773C22.6088 49.6939 22.3911 49.4065 22.3911 49.0519V38.2191C22.3911 37.8645 22.6088 37.5771 22.8773 37.5771H23.8889C24.1574 37.5771 24.3751 37.8645 24.3751 38.2191V49.0519ZM33.2554 48.2805L33.1608 49.1438C33.1262 49.4596 32.9212 49.6939 32.6796 49.6939H27.0561C26.7876 49.6939 26.5699 49.4064 26.5699 49.0518V38.2191C26.5699 37.8645 26.7876 37.5771 27.0561 37.5771H32.5899C32.8584 37.5771 33.0761 37.8645 33.0761 38.2191V39.0824C33.0761 39.437 32.8584 39.7244 32.5899 39.7244H28.9816C28.7131 39.7244 28.4954 40.0119 28.4954 40.3665V41.6785C28.4954 42.0331 28.7131 42.3206 28.9816 42.3206H32.3972C32.6657 42.3206 32.8834 42.608 32.8834 42.9626V43.8259C32.8834 44.1805 32.6657 44.468 32.3972 44.468H28.9816C28.7131 44.468 28.4954 44.7554 28.4954 45.11V46.9043C28.4954 47.2589 28.7131 47.5464 28.9816 47.5464H32.7743C33.0705 47.5465 33.2979 47.8934 33.2554 48.2805ZM42.6214 49.0519C42.6214 49.4065 42.4037 49.6939 42.1351 49.6939H40.5767C40.3994 49.6939 40.2362 49.5667 40.1507 49.3615C39.0996 46.8364 36.936 41.6277 36.5016 40.2899H36.4765C36.543 41.3498 36.5648 43.8387 36.5648 46.0089V49.0519C36.5648 49.4065 36.3471 49.694 36.0786 49.694H35.2412C34.9727 49.694 34.755 49.4065 34.755 49.0519V38.2191C34.755 37.8645 34.9727 37.5771 35.2412 37.5771H36.9283C37.1045 37.5771 37.2668 37.7027 37.3527 37.9059C38.523 40.6759 40.4948 45.2561 40.8998 46.5247H40.9248C40.8215 45.2601 40.8232 43.1559 40.8232 41.1679V38.219C40.8232 37.8644 41.0409 37.577 41.3094 37.577H42.1351C42.4036 37.577 42.6213 37.8644 42.6213 38.219V49.0519H42.6214ZM48.3711 49.6939H45.3026C45.0341 49.6939 44.8164 49.4065 44.8164 49.0519V38.2191C44.8164 37.8645 45.0341 37.5771 45.3026 37.5771H48.4547C51.1272 37.5771 52.8738 39.9011 52.8738 43.4836C52.8739 47.0175 51.1789 49.6939 48.3711 49.6939Z" fill="#00B5FF"/>
    <path d="M17.1633 39.6624H15.9388C15.6703 39.6624 15.4526 39.9499 15.4526 40.3045V42.1164C15.4526 42.471 15.6703 42.7585 15.9388 42.7585H17.116C18.2023 42.7585 18.6211 42.2131 18.6211 41.1996C18.6212 40.2142 18.1336 39.6624 17.1633 39.6624Z" fill="#00B5FF"/>
  </symbol>
  
  <symbol id="arrows-down"  viewBox="0 0 57 58" >
    <path d="M10.3076 29.9471C10.1454 30.1194 10.1223 30.3409 10.3076 30.5377L27.9529 49.2763C28.065 49.3954 28.2608 49.4552 28.4571 49.4558C28.6534 49.4552 28.8491 49.3954 28.9612 49.2763L46.6066 30.5377C46.7919 30.3408 46.7688 30.1193 46.6066 29.9471C46.334 29.6577 45.7943 29.6517 45.7723 29.6517C41.9837 30.0353 37.8038 30.3295 33.2853 30.4563L46.6066 16.3098C46.7919 16.1129 46.7688 15.8914 46.6066 15.7191C46.334 15.4297 45.7943 15.4237 45.7723 15.4237C43.1638 15.7429 40.1934 16.0303 36.9133 16.2235C36.9324 16.1683 36.9428 16.111 36.9428 16.0523V0.920965C36.9428 0.693575 36.7925 0.487737 36.5495 0.338731C36.1109 0.0698492 35.683 0.0835759 35.5999 0.0975511C33.538 0.40929 31.1349 0.633947 28.457 0.63401C25.7791 0.633947 23.3761 0.409228 21.3142 0.0975511C21.2311 0.0835759 20.8031 0.0698492 20.3646 0.338731C20.1215 0.487737 19.9712 0.693575 19.9712 0.920965V16.0523C19.9712 16.1111 19.9816 16.1683 20.0007 16.2235C16.7207 16.0303 13.7502 15.7429 11.1418 15.4237C11.1198 15.4237 10.58 15.4296 10.3075 15.7191C10.1453 15.8914 10.1221 16.1129 10.3075 16.3098L23.6287 30.4563C19.1103 30.3295 14.9304 30.0353 11.1418 29.6517C11.1199 29.6517 10.5802 29.6576 10.3076 29.9471Z" fill="#00B5FF"/>
    <path d="M55.0842 36.8766C54.6639 36.585 54.1591 36.4809 53.6622 36.583C53.1568 36.687 52.7091 37.0049 52.4339 37.4551C50.1745 41.1505 41.782 53.218 28.644 53.3502C28.571 53.3509 28.4982 53.3513 28.4254 53.3513C15.1699 53.3513 6.70008 41.1841 4.4199 37.455C4.14468 37.0049 3.69711 36.687 3.19189 36.583C2.69512 36.4807 2.19009 36.585 1.76966 36.8767C0.91177 37.4718 0.672702 38.646 1.22537 39.5499C2.47438 41.5925 5.18984 45.575 9.34275 49.2972C11.9812 51.6619 14.7787 53.5319 17.6575 54.8552C21.1369 56.4545 24.7614 57.2654 28.4303 57.2654C28.5137 57.2654 28.5976 57.265 28.681 57.2642C32.3674 57.227 36.0045 56.373 39.4913 54.7258C42.3142 53.3922 45.0555 51.5316 47.6391 49.1954C51.7103 45.5141 54.3923 41.572 55.6286 39.5498C56.1812 38.646 55.9421 37.4717 55.0842 36.8766Z" fill="white"/>
    <path d="M55.3336 17.0585C54.4625 17.0585 53.7537 17.7881 53.7537 18.6848V32.0242C53.7537 32.9209 54.4624 33.6505 55.3336 33.6505C56.2048 33.6505 56.9135 32.9209 56.9135 32.0242V18.6848C56.9135 17.7881 56.2047 17.0585 55.3336 17.0585Z" fill="white"/>
    <path d="M55.3336 5.9574C54.4625 5.9574 53.7537 6.68696 53.7537 7.58367V11.6572C53.7537 12.5539 54.4624 13.2835 55.3336 13.2835C56.2048 13.2835 56.9135 12.5539 56.9135 11.6572V7.58367C56.9135 6.68696 56.2047 5.9574 55.3336 5.9574Z" fill="white"/>
    <path d="M55.3336 0C54.4625 0 53.7537 0.729564 53.7537 1.62627V2.14441C53.7537 3.04118 54.4624 3.77068 55.3336 3.77068C56.2048 3.77068 56.9135 3.04111 56.9135 2.14441V1.62627C56.9135 0.729564 56.2047 0 55.3336 0Z" fill="white"/>
    <path d="M3.15987 32.5424V19.203C3.15987 18.3062 2.45111 17.5767 1.57994 17.5767C0.708756 17.5767 0 18.3063 0 19.203V32.5424C0 33.4391 0.708756 34.1687 1.57994 34.1687C2.45111 34.1687 3.15987 33.4391 3.15987 32.5424Z" fill="white"/>
    <path d="M1.57994 13.8021C2.45111 13.8021 3.15987 13.0725 3.15987 12.1758V8.10228C3.15987 7.20558 2.45111 6.47601 1.57994 6.47601C0.708756 6.47601 0 7.20558 0 8.10228V12.1758C0 13.0725 0.708756 13.8021 1.57994 13.8021Z" fill="white"/>
    <path d="M1.57994 4.28886C2.45111 4.28886 3.15987 3.5593 3.15987 2.66259V2.14446C3.15987 1.24775 2.45111 0.518188 1.57994 0.518188C0.708756 0.518188 0 1.24769 0 2.1444V2.66253C0 3.5593 0.708756 4.28886 1.57994 4.28886Z" fill="white"/>
  </symbol>
  
  <symbol id="gear-heart"  viewBox="0 0 58 59" >
    <path d="M57.0923 5.62003C57.092 5.5396 57.09 5.4596 57.0862 5.38003C57.0851 5.35655 57.0836 5.3332 57.0821 5.30978C57.0787 5.25351 57.0744 5.19755 57.0693 5.14171C57.0652 5.09593 57.0603 5.05047 57.055 5.00506C57.051 4.97158 57.0468 4.93817 57.0422 4.90481C57.0332 4.83842 57.0229 4.77245 57.0115 4.7068C57.0093 4.6945 57.0071 4.68221 57.0049 4.66997C56.6077 2.48016 54.8777 0.750163 52.6879 0.35302C52.6757 0.350784 52.6634 0.348611 52.6511 0.346437C52.5855 0.335008 52.5195 0.324697 52.4531 0.315691C52.4198 0.311095 52.3864 0.306871 52.3528 0.302896C52.3074 0.297617 52.2619 0.29271 52.2162 0.288549C52.1604 0.283393 52.1044 0.27917 52.0481 0.275754C52.0247 0.274387 52.0013 0.272834 51.9779 0.271716C51.8983 0.267928 51.8183 0.265878 51.7379 0.265629C51.7348 0.265629 51.7318 0.265381 51.7288 0.265381H51.7197H5.37272H5.36366C5.36061 0.265381 5.35763 0.265629 5.35459 0.265629C5.27415 0.265878 5.19415 0.267928 5.11459 0.271716C5.09111 0.272772 5.06776 0.274325 5.04434 0.275754C4.98807 0.27917 4.9321 0.283455 4.87627 0.288549C4.83049 0.29271 4.78502 0.297617 4.73962 0.302896C4.70614 0.306871 4.67273 0.311095 4.63937 0.315691C4.57297 0.324697 4.50701 0.335008 4.44136 0.346437C4.42906 0.348611 4.41676 0.350784 4.40453 0.35302C3.30962 0.551592 2.32969 1.08339 1.57379 1.83923C1.47931 1.9337 1.38832 2.03171 1.30105 2.13296C0.864719 2.63935 0.521241 3.22786 0.297267 3.87202C0.207701 4.12966 0.137205 4.39618 0.0875775 4.66991C0.0853415 4.68214 0.0831676 4.69444 0.0809937 4.70674C0.0695652 4.77233 0.0592547 4.83829 0.0502485 4.90475C0.0457143 4.93804 0.0414285 4.97146 0.0374534 5.005C0.0321739 5.0504 0.0272671 5.09593 0.0231057 5.14165C0.0179504 5.19742 0.0137267 5.25345 0.0103106 5.30972C0.00962734 5.3214 0.00900613 5.33314 0.0083229 5.34488C0.00763967 5.35655 0.00683236 5.36829 0.00633547 5.38003C0.00447212 5.41984 0.00428579 5.46003 0.00329201 5.50003C0.00229822 5.54003 0.000372771 5.57984 0.000248547 5.62003C0.000248547 5.62307 0 5.62606 0 5.6291V5.6381V6.60127V51.2584V52.5744V52.843C0 55.8055 2.41018 58.2157 5.37266 58.2157H5.64117H6.95719H50.1352H51.4512C54.5667 58.2157 57.0924 55.69 57.0924 52.5745V51.2585V6.60127V5.6381V5.62904C57.0925 5.62606 57.0923 5.62307 57.0923 5.62003ZM54.608 50.99C54.608 53.6085 52.4853 55.7312 49.8668 55.7312H7.22583C4.60732 55.7312 2.48459 53.6085 2.48459 50.99V11.9528C2.48459 11.0895 3.1844 10.3897 4.0477 10.3897H53.0449C53.9082 10.3897 54.608 11.0895 54.608 11.9528V50.99ZM54.608 6.33276C54.608 7.19605 53.9082 7.89587 53.0449 7.89587H4.0477C3.1844 7.89587 2.48459 7.19605 2.48459 6.33276V5.90661C2.48459 4.1632 3.89788 2.74991 5.6413 2.74991H51.4513C53.1948 2.74991 54.608 4.1632 54.608 5.90661V6.33276Z" fill="white"/>
    <path d="M32.372 28.7408C31.0187 28.3137 29.8385 28.6587 28.8605 29.6879C28.8012 29.7503 28.7454 29.8164 28.6905 29.8829C28.6387 29.9456 28.5904 30.011 28.5338 30.0839C28.419 29.9481 28.3161 29.8164 28.203 29.6943C27.6646 29.113 27.0204 28.7102 26.2253 28.6086C24.9965 28.4516 23.9465 28.8269 23.1384 29.7724C22.3303 30.718 22.0946 31.8351 22.2803 33.0473C22.3981 33.8157 22.7507 34.4855 23.2094 35.102C23.8117 35.9114 24.5467 36.5935 25.3035 37.2525C26.1959 38.0294 27.0938 38.8001 27.991 39.5714C28.3369 39.8688 28.7063 39.883 29.0374 39.5958C30.2104 38.5783 31.3863 37.5638 32.5448 36.5299C33.1278 36.0096 33.6508 35.4285 34.0794 34.7693C34.4862 34.1436 34.7581 33.4693 34.8227 32.7197C34.8251 32.6917 34.8347 32.6642 34.841 32.6366C34.841 32.4476 34.841 32.2586 34.841 32.0695C34.7993 31.8236 34.7761 31.5729 34.7131 31.3326C34.3809 30.0665 33.6405 29.1412 32.372 28.7408Z" fill="#00B5FF"/>
    <path d="M45.0147 30.1161L41.922 29.7446C41.6059 28.5648 41.1429 27.4503 40.5467 26.4161L42.4695 23.9721C42.7634 23.5964 42.7302 23.0156 42.3905 22.6773L39.2035 19.4889C38.868 19.152 38.2858 19.116 37.9087 19.4099L35.4605 21.3354C34.4305 20.7393 33.3159 20.2763 32.1389 19.963L31.7688 16.8702C31.712 16.3975 31.2753 16.0107 30.7984 16.0107H26.2902C25.8133 16.0107 25.3767 16.3975 25.3212 16.8702L24.9497 19.963C23.7714 20.2777 22.6555 20.742 21.6255 21.3368L19.1787 19.414C18.8044 19.1201 18.2222 19.1547 17.8853 19.4916L14.6968 22.6815C14.3614 23.017 14.3267 23.5992 14.622 23.9763L16.5434 26.4217C15.9473 27.4531 15.4842 28.569 15.1696 29.7488L12.0782 30.1189C11.6054 30.1744 11.2173 30.611 11.2173 31.0893V35.5975C11.2173 36.0744 11.6041 36.5083 12.0782 36.5665L15.1709 36.938C15.487 38.1136 15.9486 39.2282 16.5447 40.2596L14.6234 42.7078C14.3309 43.0834 14.3641 43.6643 14.7024 44.0026L17.8853 47.1924C18.2222 47.5278 18.8044 47.5653 19.1787 47.2714L21.6269 45.3445C22.6583 45.9406 23.7729 46.405 24.9512 46.7183L25.3227 49.8097C25.3795 50.2838 25.8148 50.6692 26.2917 50.6692H30.7999C31.2781 50.6692 31.7134 50.2838 31.7689 49.8097L32.1404 46.7183C33.3202 46.4022 34.4347 45.9392 35.4647 45.3445L37.9129 47.2673C38.2885 47.5612 38.8694 47.5265 39.2063 47.1896L42.3934 43.9998C42.7316 43.6644 42.7663 43.0821 42.471 42.7037L40.5469 40.2583C41.1444 39.2269 41.606 38.1123 41.9221 36.9354L45.0135 36.5639C45.4876 36.507 45.8744 36.0745 45.8744 35.5949V31.0865C45.8756 30.6069 45.4902 30.173 45.0147 30.1161ZM28.5458 44.267C22.5109 44.267 17.6187 39.3747 17.6187 33.3399C17.6187 27.305 22.5109 22.4128 28.5458 22.4128C34.5806 22.4128 39.4728 27.305 39.4728 33.3399C39.4728 39.3747 34.5806 44.267 28.5458 44.267Z" fill="#00B5FF"/>
  </symbol>
  
  <symbol id="circle-arrows"  viewBox="0 0 61 56" >
    <path d="M59.9195 20.9936C59.8034 20.7929 59.5955 20.673 59.3639 20.6734L57.0023 20.6753H57.0023C56.8544 20.6754 56.7237 20.5769 56.6842 20.4357C56.2519 18.889 55.6775 17.3669 54.9771 15.9116C53.4242 12.6849 51.2864 9.82333 48.6232 7.40632C45.96 4.98924 42.9048 3.13788 39.5426 1.90359C36.0606 0.625334 32.4018 0.0686267 28.6674 0.248751C24.933 0.428875 21.3448 1.33521 18.0025 2.94254C14.7751 4.49458 11.9128 6.63135 9.49519 9.29352C7.07762 11.9557 5.22594 15.0097 3.99172 18.3707C3.45756 19.8252 3.04452 21.3305 2.76414 22.8446C2.70035 23.1888 2.92768 23.5239 3.27085 23.5916L5.36892 24.0054C5.37464 24.0066 5.38041 24.0076 5.38619 24.0086C5.54979 24.0364 5.71482 24.0006 5.85265 23.9069C5.99569 23.8098 6.09184 23.6624 6.12333 23.4921C8.18109 12.3607 17.5194 4.20539 28.8324 3.6598C39.6633 3.13726 49.6216 9.9583 53.049 20.247C53.0825 20.3474 53.0659 20.4545 53.0037 20.5409C52.9405 20.6285 52.8424 20.6789 52.7345 20.679L50.6133 20.6808C50.3813 20.681 50.1738 20.801 50.0581 21.0019C49.9425 21.2027 49.9428 21.4423 50.0589 21.6429L54.4413 29.2152C54.5574 29.4158 54.7654 29.5355 54.997 29.5352C55.2288 29.535 55.4362 29.415 55.5519 29.2142L59.9202 21.6347C60.0357 21.4338 60.0355 21.1941 59.9195 20.9936Z" fill="white"/>
    <path d="M56.7358 32.3394L54.6377 31.9254C54.4682 31.892 54.2968 31.9271 54.1541 32.0239C54.0111 32.1212 53.9149 32.2685 53.8834 32.4388C51.8256 43.5701 42.4873 51.7256 31.1744 52.2712C20.3432 52.7933 10.3852 45.9726 6.9577 35.684C6.92428 35.5836 6.9408 35.4765 7.00298 35.3901C7.06615 35.3024 7.16422 35.2521 7.27217 35.252L9.39353 35.2503C9.6254 35.2501 9.83291 35.1301 9.94856 34.9292C10.0643 34.7284 10.064 34.4887 9.94794 34.2882L5.56546 26.7158C5.44932 26.5152 5.24155 26.3958 5.00981 26.3958C4.77801 26.396 4.57056 26.516 4.45485 26.7168L0.0866538 34.2963C-0.0290603 34.497 -0.028874 34.7367 0.0871506 34.9373C0.203237 35.138 0.410939 35.2576 0.642864 35.2575L3.00441 35.2556V35.2555C3.15205 35.2553 3.28292 35.3539 3.32242 35.4952C3.75485 37.0421 4.32919 38.5642 5.0295 40.0193C6.58248 43.2459 8.7203 46.1075 11.3835 48.5246C14.0466 50.9416 17.1018 52.793 20.4641 54.0273C22.0572 54.6121 23.6869 55.0458 25.3443 55.3271C27.3095 55.6606 29.3135 55.7798 31.3393 55.6821C35.0737 55.5019 38.6619 54.5957 42.0042 52.9884C45.2317 51.4362 48.094 49.2995 50.5115 46.6374C52.9291 43.9754 54.7807 40.9214 56.015 37.5602C56.5491 36.1059 56.9621 34.6007 57.2426 33.0862C57.3063 32.7421 57.079 32.4071 56.7358 32.3394Z" fill="white"/>
    <path d="M27.2585 41.6567C27.306 41.4717 27.1911 41.284 27.0047 41.2424C20.7861 39.8547 16.3137 34.2197 16.3704 27.8436C16.4232 21.9085 20.2856 16.7496 25.8757 14.9879C26.1001 14.9171 26.3257 15.0953 26.3124 15.3303L26.2492 16.4542C26.2345 16.7141 26.5067 16.8924 26.7392 16.775L32.0524 14.0924C32.2847 13.9752 32.3029 13.6504 32.0852 13.5078L27.1067 10.2466C26.889 10.104 26.5985 10.2506 26.5839 10.5104L26.498 12.0358C26.4895 12.1858 26.3828 12.3111 26.2366 12.346C25.4266 12.5398 24.6278 12.7983 23.8556 13.117C21.9374 13.9089 20.211 15.0511 18.7243 16.5122C17.2377 17.9732 16.0655 19.6796 15.2402 21.5843C14.3855 23.5568 13.9423 25.6555 13.923 27.8221C13.9037 29.9887 14.3095 32.0948 15.129 34.0821C15.9205 36.0009 17.0621 37.7277 18.5224 39.2144C19.9828 40.7012 21.6886 41.8736 23.5926 42.6989C24.5027 43.0934 25.452 43.4039 26.4141 43.6216C26.5924 43.6619 26.7706 43.5532 26.8162 43.376L27.2585 41.6567Z" fill="#00B5FF"/>
    <path d="M32.7495 14.2742C32.702 14.4591 32.8169 14.6468 33.0033 14.6884C39.222 16.0761 43.6943 21.7112 43.6375 28.0873C43.6286 29.0918 43.5108 30.0731 43.2937 31.0205C42.2284 35.6687 38.7787 39.4767 34.1374 40.9414C33.9108 41.0129 33.6822 40.8378 33.6956 40.6006L33.7589 39.4767C33.7735 39.2168 33.5013 39.0385 33.2689 39.1559L27.9555 41.8385C27.7232 41.9557 27.7049 42.2805 27.9226 42.4231L32.9012 45.6843C33.119 45.8269 33.4094 45.6803 33.4241 45.4204L33.5099 43.8951C33.5184 43.745 33.6251 43.6198 33.7713 43.5849C34.5813 43.3912 35.3801 43.1326 36.1523 42.8139C38.0707 42.022 39.7971 40.8797 41.2836 39.4188C42.7701 37.9578 43.9424 36.2513 44.7677 34.3466C45.1588 33.444 45.4637 32.5154 45.6813 31.5655C45.9392 30.4395 46.0745 29.284 46.0849 28.1088C46.1042 25.9421 45.6984 23.8359 44.8789 21.8488C44.0876 19.93 42.9459 18.2032 41.4856 16.7164C40.0252 15.2296 38.3194 14.0573 36.4154 13.2319C35.5052 12.8374 34.556 12.527 33.5939 12.3093C33.4156 12.2689 33.2374 12.3776 33.1918 12.5548L32.7495 14.2742Z" fill="#00B5FF"/>
  </symbol>
  
  <symbol id="check"  viewBox="0 0 59 55" >
    <g clip-path="url(#clip0)">
      <rect width="5.15994" height="17.4316" transform="matrix(0.675911 -0.736983 0.754313 0.656515 0 10.418)" fill="#B0B0B0"/>
      <rect width="5.14614" height="25.0769" transform="matrix(0.755659 0.654965 -0.674405 0.738362 26.1934 0)" fill="#00B5FF"/>
    </g>
  </symbol>
  
  <symbol id="aida-eye"  viewBox="0 0 200 173" >
    <path d="M100.62 97.4621C105.862 97.4616 110.367 66.0031 111.908 49.5473C114.734 19.3512 113.581 6.92903 107.501 2.07752C104.066 -0.665253 99.5526 -0.694779 96.0018 2.00404C89.7035 6.78749 88.2484 18.7183 90.2343 49.2836C91.3061 65.7745 95.3015 97.3111 100.62 97.4621Z" fill="#961E97"/>
    <path d="M101.389 142.772C110.644 142.772 118.146 135.27 118.146 126.015C118.146 116.76 110.644 109.258 101.389 109.258C92.1342 109.258 84.6318 116.76 84.6318 126.015C84.6318 135.27 92.1342 142.772 101.389 142.772Z" fill="#961E97"/>
    <path d="M163.242 160.159C176.276 153.998 188.141 145.324 198.507 134.379C199.708 133.112 200.22 131.356 199.912 129.562C199.733 128.52 199.198 127.507 198.364 126.633C186.538 114.233 172.76 104.576 157.412 97.9289C146.369 93.1466 131.729 89.3702 119.203 88.0731C119.077 88.06 118.957 88.0534 118.847 88.0534C117.884 88.0534 117.645 88.4186 117.018 90.8447C116.891 91.3331 116.761 91.8382 116.599 92.3767C116.21 93.6758 116.041 95.6435 119.061 97.7209C128.545 104.243 134.342 116.524 133.487 128.28C132.855 136.982 128.633 143.493 124.521 147.855C125.646 147.155 126.807 146.355 127.962 145.442C134.731 140.091 138.468 133.192 139.069 124.935C139.83 114.459 137.732 107.927 131.051 99.9757C130.71 99.5727 130.625 98.9903 130.836 98.4942C131.046 97.999 131.513 97.6789 132.027 97.6789H132.148L132.276 97.7042C139.96 99.2722 147.521 101.655 154.747 104.785C168.258 110.635 180.508 118.977 191.156 129.58C191.418 129.842 191.567 130.207 191.567 130.585C191.567 130.962 191.418 131.327 191.159 131.586C181.981 140.741 171.623 148.078 160.372 153.396C151.252 157.708 133.26 164.942 115.227 164.942C103.474 164.942 93.5028 161.865 85.5908 155.795C76.0142 148.45 70.7143 139.847 69.8383 130.224C68.8105 118.934 74.1588 107.036 84.1449 98.395C85.9694 96.8164 86.678 94.2149 85.8682 92.0692C85.6476 91.485 85.4681 90.9213 85.3099 90.4239C84.6439 88.3311 84.4374 88.0415 83.6114 88.0415C83.4865 88.0415 83.3486 88.051 83.2009 88.0697C71.198 89.6023 56.9318 93.3717 45.9711 97.907C29.8895 104.561 15.2078 114.206 2.334 126.574C0.680767 128.164 -0.079248 131.15 1.66752 133.78C1.82304 134.015 2.03964 134.254 2.36961 134.556C12.919 144.226 24.3429 154.242 37.7793 161.118C50.1345 167.44 63.4068 169.819 73.6171 171.219C63.4994 167.738 49.5811 162.812 42.3294 158.438C29.5863 150.752 18.9254 141.919 9.73738 131.434C9.49644 131.157 9.3718 130.787 9.39209 130.417C9.41237 130.046 9.57668 129.694 9.84286 129.452C21.3945 118.941 34.4115 110.65 48.5331 104.806C55.9191 101.75 63.6276 99.3734 71.4451 97.7434L71.5663 97.7182L71.6989 97.7173C72.2026 97.7173 72.6667 98.0285 72.881 98.5104C73.0951 98.9923 73.0253 99.5684 72.703 99.9779C65.3803 109.29 61.8813 120.284 62.8509 130.933C63.5916 139.065 67.4221 151.02 81.4645 161.79C90.7012 168.874 102.081 172.466 115.289 172.466C133.408 172.466 151.367 165.773 163.242 160.159Z" fill="white"/>
  </symbol>
  
  <symbol id="pmphs-fire"  viewBox="0 0 162 182" >
    <path d="M70.9368 55.3916C79.5225 55.2211 86.3717 47.9574 86.2352 39.168C86.2139 37.7928 86.0225 36.4617 85.6825 35.1951C85.4663 34.2678 85.0952 33.1678 84.5249 31.7404C82.7329 27.2557 81.153 24.9828 78.77 20.6287C78.4405 20.0266 76.21 15.9336 74.2417 11.4736C72.3272 7.13555 71.0063 3.2334 70.076 0C69.2469 3.26836 68.0479 7.22051 66.2694 11.632C64.4409 16.1674 62.3389 20.3465 62.0284 20.9613C59.7821 25.4074 58.2737 27.7416 56.6221 32.2949C56.0966 33.7441 55.76 34.8582 55.5725 35.7936C55.272 37.0727 55.1221 38.4105 55.1436 39.7857C55.2803 48.5752 62.351 55.5623 70.9368 55.3916Z" fill="#00B5FF"/>
    <path d="M115.081 72.1325C121.435 72.0063 126.505 66.6303 126.403 60.125C126.388 59.1073 126.246 58.1221 125.994 57.1846C125.834 56.4983 125.559 55.6842 125.137 54.6276C123.811 51.3083 122.642 49.626 120.878 46.4036C120.634 45.9579 118.983 42.9286 117.526 39.6278C116.109 36.417 115.132 33.529 114.443 31.136C113.83 33.5549 112.942 36.4801 111.626 39.745C110.273 43.1016 108.717 46.1948 108.487 46.6499C106.825 49.9405 105.708 51.668 104.486 55.0381C104.097 56.1108 103.848 56.9354 103.709 57.6276C103.487 58.5743 103.376 59.5645 103.392 60.5823C103.493 67.0876 108.726 72.2588 115.081 72.1325Z" fill="#00B5FF"/>
    <path d="M11.6905 83.7787C18.045 83.6526 23.1144 78.2766 23.0132 71.7713C22.9974 70.7535 22.8558 69.7684 22.604 68.8309C22.4439 68.1445 22.1693 67.3305 21.7472 66.2738C20.421 62.9545 19.2517 61.2723 17.4878 58.0498C17.2439 57.6041 15.5931 54.5748 14.1363 51.274C12.7193 48.0633 11.7417 45.1752 11.0532 42.7822C10.4396 45.2012 9.55227 48.1264 8.23586 51.3912C6.88254 54.7479 5.32687 57.841 5.09699 58.2961C3.43449 61.5867 2.31809 63.3143 1.09582 66.6844C0.706759 67.757 0.457734 68.5817 0.319063 69.2738C0.0966017 70.2205 -0.0143357 71.2108 0.00148459 72.2285C0.102852 78.7338 5.33625 83.9049 11.6905 83.7787Z" fill="#00B5FF"/>
    <path d="M110.132 181.667C107.074 181.667 104.008 181.422 100.965 180.929C99.6038 180.709 98.4626 179.838 97.9124 178.599C97.3753 177.39 97.4833 176.003 98.201 174.886L98.2145 174.865C101.086 170.418 102.841 164.716 103.431 157.917C104.247 148.502 101.856 140.952 100.335 137.249C100.076 136.712 97.4829 131.459 93.3272 127.761C92.7868 130.886 91.4276 134.842 88.1645 138.252C86.971 139.499 85.0989 139.856 83.5065 139.14C81.9409 138.437 81.0173 136.897 81.1538 135.217C81.6194 129.482 81.2241 116.111 68.9122 108.872C69.2645 111.205 69.4059 114.081 69.0169 117.419C68.2395 124.091 65.5524 130.898 61.0303 137.651C53.4534 148.967 53.5637 164.251 61.2989 174.818C62.2296 176.09 62.3198 177.725 61.5343 179.086C60.7335 180.473 59.1692 181.255 57.5507 181.08C53.318 180.621 46.7397 179.483 39.4389 176.668C30.1962 173.103 22.3325 167.844 16.0665 161.038C2.68836 146.504 1.5366 130.082 2.0407 121.586C2.15301 119.694 3.5698 118.173 5.48601 117.887C7.42605 117.598 9.24656 118.652 9.91472 120.451C11.5319 124.805 14.2173 128.115 17.896 130.288C18.446 130.613 19.02 130.913 19.6143 131.185C20.8718 122.154 25.3524 113.523 32.672 106.087C52.4684 85.9783 48.1305 71.4121 45.3466 66.0828C44.6182 64.6882 44.7768 63.0564 45.7602 61.8238C46.7667 60.5624 48.438 60.0162 50.0178 60.4322C68.2427 65.2324 80.5405 73.7964 86.57 85.8867C90.2657 93.2974 90.7794 100.451 90.4587 105.498C97.5563 100.056 98.2296 93.5517 98.1499 90.7832C98.1126 89.483 98.7276 88.2464 99.7952 87.4751C100.904 86.674 102.338 86.4761 103.632 86.9458C119.038 92.5371 128.441 105.942 128.834 106.509C128.875 106.568 128.918 106.635 128.96 106.704C132.461 112.475 138.023 124.305 136.291 139.112C139.013 136.21 141.24 132.995 142.939 129.509C146.328 122.556 146.519 116.298 146.582 114.242C146.588 114.077 146.592 113.933 146.597 113.811C146.736 110.357 146.415 107.96 146.202 106.374C146.113 105.71 146.043 105.185 146.029 104.723C145.951 102.128 147.892 101.42 148.282 101.305C148.895 101.123 150.121 100.979 151.446 102.051C154.754 104.728 162.854 119.483 161.496 136.848L161.486 136.974C161.213 140.489 160.38 151.185 152.916 161.207C147.338 168.699 139.466 174.517 130.153 178.032C123.763 180.443 116.968 181.667 110.132 181.667ZM103.131 178.053L103.128 178.057C103.129 178.056 103.13 178.054 103.131 178.053ZM104.615 175.512C121.768 177.37 138.653 170.551 148.217 157.707C154.669 149.042 155.378 139.944 155.645 136.519L155.655 136.391C156.304 128.089 154.495 120.603 152.413 115.196C152.294 118.123 151.783 124.737 148.206 132.076C145.415 137.803 141.402 142.879 136.279 147.164C134.932 148.292 133.011 148.434 131.5 147.519C130.024 146.625 129.305 144.974 129.668 143.312C130.058 141.524 130.266 140.062 130.418 138.868C132.105 125.638 127.127 114.995 123.984 109.798C123.325 108.858 115.928 98.5972 103.901 93.3585C103.38 98.3974 100.787 106.598 90.2823 112.63C88.8979 113.425 87.1598 113.349 85.8538 112.436C84.5819 111.547 83.9536 110.056 84.2138 108.545C85.4497 101.37 86.6136 77.7572 52.1259 67.1249C53.237 70.4453 54.1018 75.1095 53.3411 80.7978C52.0425 90.5087 46.4932 100.4 36.8479 110.198C29.8538 117.302 25.8249 125.559 25.1964 134.076C25.1065 135.294 24.4651 136.387 23.4366 137.074C22.3868 137.775 21.0395 137.955 19.8321 137.556C18.0932 136.981 16.4387 136.233 14.9157 135.333C12.2196 133.74 9.89246 131.64 8.00437 129.118C8.71082 136.997 11.5645 147.495 20.3776 157.069C31.4018 169.045 45.854 173.238 54.2837 174.702C51.3784 169.473 49.7311 163.369 49.5827 157.117C49.3891 148.967 51.6641 141.108 56.1618 134.391C65.3636 120.649 63.5964 110.402 62.4095 106.635C61.946 105.162 62.3753 103.598 63.5302 102.552C64.7163 101.478 66.4382 101.192 67.9171 101.825C76.1807 105.356 81.887 111.217 84.8774 119.247C86.1458 122.652 86.7571 126.009 86.9991 129.012C87.6081 127.152 87.7723 125.432 87.797 124.261C87.8264 122.846 88.6305 121.543 89.8954 120.86C91.2016 120.154 92.793 120.203 94.0489 120.989C101.312 125.534 105.499 134.455 105.674 134.833L105.723 134.945C107.446 139.116 110.197 147.712 109.268 158.424C108.699 164.985 107.137 170.718 104.615 175.512ZM124.014 109.841C124.016 109.844 124.018 109.847 124.021 109.85C124.019 109.847 124.016 109.844 124.014 109.841Z" fill="white"/>
  </symbol>
  
  <symbol id="n"  viewBox="0 0 59 55" >
    
  </symbol>



</svg>