<svg width="200" height="173" viewBox="0 0 200 173" fill="none" xmlns="http://www.w3.org/2000/svg">
<path d="M100.62 97.4621C105.862 97.4616 110.367 66.0031 111.908 49.5473C114.734 19.3512 113.581 6.92903 107.501 2.07752C104.066 -0.665253 99.5526 -0.694779 96.0018 2.00404C89.7035 6.78749 88.2484 18.7183 90.2343 49.2836C91.3061 65.7745 95.3015 97.3111 100.62 97.4621Z" fill="#961E97"/>
<path d="M101.389 142.772C110.644 142.772 118.146 135.27 118.146 126.015C118.146 116.76 110.644 109.258 101.389 109.258C92.1342 109.258 84.6318 116.76 84.6318 126.015C84.6318 135.27 92.1342 142.772 101.389 142.772Z" fill="#961E97"/>
<path d="M163.242 160.159C176.276 153.998 188.141 145.324 198.507 134.379C199.708 133.112 200.22 131.356 199.912 129.562C199.733 128.52 199.198 127.507 198.364 126.633C186.538 114.233 172.76 104.576 157.412 97.9289C146.369 93.1466 131.729 89.3702 119.203 88.0731C119.077 88.06 118.957 88.0534 118.847 88.0534C117.884 88.0534 117.645 88.4186 117.018 90.8447C116.891 91.3331 116.761 91.8382 116.599 92.3767C116.21 93.6758 116.041 95.6435 119.061 97.7209C128.545 104.243 134.342 116.524 133.487 128.28C132.855 136.982 128.633 143.493 124.521 147.855C125.646 147.155 126.807 146.355 127.962 145.442C134.731 140.091 138.468 133.192 139.069 124.935C139.83 114.459 137.732 107.927 131.051 99.9757C130.71 99.5727 130.625 98.9903 130.836 98.4942C131.046 97.999 131.513 97.6789 132.027 97.6789H132.148L132.276 97.7042C139.96 99.2722 147.521 101.655 154.747 104.785C168.258 110.635 180.508 118.977 191.156 129.58C191.418 129.842 191.567 130.207 191.567 130.585C191.567 130.962 191.418 131.327 191.159 131.586C181.981 140.741 171.623 148.078 160.372 153.396C151.252 157.708 133.26 164.942 115.227 164.942C103.474 164.942 93.5028 161.865 85.5908 155.795C76.0142 148.45 70.7143 139.847 69.8383 130.224C68.8105 118.934 74.1588 107.036 84.1449 98.395C85.9694 96.8164 86.678 94.2149 85.8682 92.0692C85.6476 91.485 85.4681 90.9213 85.3099 90.4239C84.6439 88.3311 84.4374 88.0415 83.6114 88.0415C83.4865 88.0415 83.3486 88.051 83.2009 88.0697C71.198 89.6023 56.9318 93.3717 45.9711 97.907C29.8895 104.561 15.2078 114.206 2.334 126.574C0.680767 128.164 -0.079248 131.15 1.66752 133.78C1.82304 134.015 2.03964 134.254 2.36961 134.556C12.919 144.226 24.3429 154.242 37.7793 161.118C50.1345 167.44 63.4068 169.819 73.6171 171.219C63.4994 167.738 49.5811 162.812 42.3294 158.438C29.5863 150.752 18.9254 141.919 9.73738 131.434C9.49644 131.157 9.3718 130.787 9.39209 130.417C9.41237 130.046 9.57668 129.694 9.84286 129.452C21.3945 118.941 34.4115 110.65 48.5331 104.806C55.9191 101.75 63.6276 99.3734 71.4451 97.7434L71.5663 97.7182L71.6989 97.7173C72.2026 97.7173 72.6667 98.0285 72.881 98.5104C73.0951 98.9923 73.0253 99.5684 72.703 99.9779C65.3803 109.29 61.8813 120.284 62.8509 130.933C63.5916 139.065 67.4221 151.02 81.4645 161.79C90.7012 168.874 102.081 172.466 115.289 172.466C133.408 172.466 151.367 165.773 163.242 160.159Z" fill="white"/>
</svg>
