<svg width="192" height="53" viewBox="0 0 192 53" fill="none" xmlns="http://www.w3.org/2000/svg">
<path d="M22.9611 45.3376L19.8618 52.4314H21.4828L23.7437 47.2154L25.9675 52.4314H27.5996L24.5102 45.3376H22.9611Z" fill="white"/>
<path d="M31.758 45.3376L28.6611 52.4314H30.2499L30.9035 50.9697H34.1801L34.8089 52.4314H36.3977L33.3095 45.3376H31.758ZM31.4653 49.6536L32.543 47.2178L33.6134 49.6536H31.4653Z" fill="white"/>
<path d="M41.8752 48.2117C41.4461 48.0796 40.893 48.0141 40.2158 48.0141H39.8834V46.6536H42.5524V45.3376H38.3555V52.4314H40.604C41.27 52.4314 41.7909 52.3389 42.1679 52.1537C42.5449 51.9685 42.8401 51.729 43.0547 51.4351C43.2692 51.1413 43.3771 50.7462 43.3771 50.2512C43.3771 49.7524 43.2345 49.3215 42.948 48.9561C42.6615 48.5919 42.3043 48.3438 41.8752 48.2117ZM41.5912 50.9018C41.4052 51.0623 40.9637 51.1425 40.2654 51.1425H39.8834V49.2178H40.1997C41.3134 49.2178 41.8703 49.5623 41.8703 50.2499C41.869 50.524 41.7772 50.7413 41.5912 50.9018Z" fill="white"/>
<path d="M52.2229 46.2486C51.4056 45.5227 50.4283 45.1585 49.2923 45.1585C48.5419 45.1585 47.8424 45.3252 47.1925 45.6573C46.5427 45.9906 46.0317 46.4412 45.6609 47.0104C45.29 47.5795 45.104 48.203 45.104 48.882C45.104 49.8943 45.5021 50.7697 46.2996 51.5055C47.0971 52.2413 48.0979 52.6104 49.3034 52.6104C50.4543 52.6104 51.4329 52.2524 52.239 51.5351C53.0452 50.8178 53.4495 49.9425 53.4495 48.9067C53.4495 47.861 53.0402 46.9746 52.2229 46.2486ZM51.1563 50.6079C50.6466 51.0709 50.0289 51.3018 49.3034 51.3018C48.6622 51.3018 48.0942 51.1227 47.5981 50.766C46.9606 50.3092 46.6419 49.6894 46.6419 48.9042C46.6419 48.2005 46.8949 47.6202 47.4009 47.1635C47.9069 46.7067 48.532 46.4783 49.2749 46.4783C50.0103 46.4783 50.6354 46.7116 51.1489 47.1795C51.6623 47.6474 51.9191 48.219 51.9191 48.8943C51.9203 49.5746 51.666 50.145 51.1563 50.6079Z" fill="white"/>
<path d="M59.1857 45.5511C58.7988 45.4079 58.1663 45.3363 57.2894 45.3363H55.6685V52.4301H57.1964V49.4264C57.9753 49.4264 58.5123 49.3894 58.8062 49.3153C59.3085 49.1869 59.7054 48.9585 59.9993 48.6301C60.292 48.3017 60.4384 47.8906 60.4384 47.3955C60.4384 46.9486 60.3268 46.5659 60.1023 46.2449C59.879 45.9264 59.5727 45.6943 59.1857 45.5511ZM58.831 47.798C58.7455 47.9091 58.6276 47.9894 58.4788 48.0375C58.33 48.0857 58.0633 48.1104 57.6813 48.1104H57.1952V46.6536H57.6268C58.0993 46.6536 58.4242 46.7005 58.5979 46.7943C58.8385 46.9202 58.9575 47.1202 58.9575 47.3943C58.9588 47.5523 58.9166 47.6869 58.831 47.798Z" fill="white"/>
<path d="M65.1662 45.3376L62.0693 52.4314H63.6581L64.3117 50.9697H67.5883L68.2171 52.4314H69.8059L66.7177 45.3376H65.1662ZM64.8735 49.6536L65.9512 47.2178L67.0216 49.6536H64.8735Z" fill="white"/>
<path d="M70.9768 46.6684H72.4018V52.4314H73.9521V46.6684H75.4143V45.3376H70.9768V46.6684Z" fill="white"/>
<path d="M83.9665 46.2486C83.1492 45.5227 82.1719 45.1585 81.0359 45.1585C80.2855 45.1585 79.5861 45.3252 78.9362 45.6573C78.2863 45.9906 77.7753 46.4412 77.4045 47.0104C77.0337 47.5795 76.8477 48.203 76.8477 48.882C76.8477 49.8943 77.2458 50.7697 78.0432 51.5055C78.8407 52.2413 79.8416 52.6104 81.047 52.6104C82.198 52.6104 83.1765 52.2524 83.9827 51.5351C84.7888 50.8178 85.1919 49.9425 85.1919 48.9067C85.1931 47.861 84.7838 46.9746 83.9665 46.2486ZM82.8987 50.6079C82.389 51.0709 81.7713 51.3018 81.0458 51.3018C80.4046 51.3018 79.8366 51.1227 79.3405 50.766C78.703 50.3092 78.3843 49.6894 78.3843 48.9042C78.3843 48.2005 78.6373 47.6202 79.1433 47.1635C79.6493 46.7067 80.2744 46.4783 81.0173 46.4783C81.7527 46.4783 82.3778 46.7116 82.8913 47.1795C83.4047 47.6474 83.6614 48.219 83.6614 48.8943C83.6639 49.5746 83.4097 50.145 82.8987 50.6079Z" fill="white"/>
<path d="M90.9289 45.5511C90.5419 45.4079 89.9094 45.3363 89.0326 45.3363H87.4116V52.4301H88.9396V49.4264C89.7184 49.4264 90.2554 49.3894 90.5494 49.3153C91.0517 49.1869 91.4485 48.9585 91.7425 48.6301C92.0352 48.3017 92.1815 47.8906 92.1815 47.3955C92.1815 46.9486 92.0699 46.5659 91.8454 46.2449C91.6209 45.9264 91.3158 45.6943 90.9289 45.5511ZM90.5729 47.798C90.4874 47.9091 90.3695 47.9894 90.2207 48.0375C90.0719 48.0857 89.8065 48.1104 89.4233 48.1104H88.9371V46.6536H89.3687C89.8412 46.6536 90.1662 46.7005 90.3398 46.7943C90.5804 46.9202 90.6995 47.1202 90.6995 47.3943C90.7019 47.5523 90.6585 47.6869 90.5729 47.798Z" fill="white"/>
<path d="M95.9821 49.9228V45.3376H94.4541V52.4314H95.7824L98.7775 47.9894V52.4314H100.305V45.3376H99.0169L95.9821 49.9228Z" fill="white"/>
<path d="M104.693 45.3906C104.533 45.4029 104.317 45.4523 104.047 45.5375C103.777 45.6227 103.539 45.7548 103.333 45.9326C103.127 46.1116 102.969 46.3289 102.859 46.5857C102.749 46.8425 102.693 47.1449 102.693 47.4931C102.693 48.4672 103.22 49.0881 104.273 49.3548L102.456 52.4301H104.125L105.739 49.5758H106.121V52.4301H107.649V45.3363H106.029C105.298 45.3597 104.853 45.377 104.693 45.3906ZM106.121 48.2597H105.642C105.178 48.2597 104.841 48.2017 104.63 48.0857C104.419 47.9696 104.315 47.7659 104.315 47.4733C104.315 47.277 104.367 47.1128 104.472 46.9795C104.578 46.8462 104.714 46.7597 104.88 46.719C105.047 46.6783 105.321 46.6585 105.703 46.6585H106.122V48.2597H106.121Z" fill="white"/>
<path d="M117.691 48.2117C117.262 48.0796 116.708 48.0141 116.031 48.0141H115.698V46.6536H118.367V45.3376H114.168V52.4314H116.417C117.083 52.4314 117.604 52.3389 117.981 52.1537C118.358 51.9685 118.653 51.729 118.868 51.4351C119.082 51.1413 119.19 50.7462 119.19 50.2512C119.19 49.7524 119.048 49.3215 118.761 48.9561C118.478 48.5919 118.12 48.3438 117.691 48.2117ZM117.407 50.9018C117.221 51.0623 116.779 51.1425 116.08 51.1425H115.698V49.2178H116.014C117.128 49.2178 117.685 49.5623 117.685 50.2499C117.686 50.524 117.593 50.7413 117.407 50.9018Z" fill="white"/>
<path d="M122.84 49.9228V45.3376H121.312V52.4314H122.64L125.634 47.9894V52.4314H127.163V45.3376H125.875L122.84 49.9228Z" fill="white"/>
<path d="M132.886 48.5252C133.345 48.2549 133.624 47.9993 133.724 47.7586C133.825 47.5178 133.874 47.2697 133.874 47.0153C133.874 46.4437 133.651 45.9882 133.205 45.6511C132.758 45.3141 132.208 45.145 131.552 45.145C131.279 45.145 130.98 45.1832 130.655 45.2585C130.33 45.3338 129.926 45.5647 129.441 45.9511L130.341 46.8388C130.703 46.54 131.055 46.3906 131.398 46.3906C131.687 46.3906 131.917 46.4647 132.093 46.6129C132.268 46.761 132.356 46.9623 132.356 47.2153C132.356 47.4919 132.252 47.7116 132.043 47.8758C131.833 48.04 131.527 48.1215 131.122 48.1215H130.795V49.3277H131.122C131.803 49.3277 132.251 49.424 132.468 49.6166C132.685 49.8092 132.793 50.0524 132.793 50.345C132.793 50.6438 132.681 50.8833 132.459 51.0635C132.237 51.2438 131.945 51.3339 131.584 51.3339C131.041 51.3339 130.566 51.0845 130.161 50.587L128.993 51.3438C129.456 51.8709 129.883 52.2141 130.278 52.3734C130.672 52.5327 131.116 52.6117 131.611 52.6117C132.399 52.6117 133.042 52.4117 133.543 52.0117C134.044 51.6117 134.295 51.082 134.295 50.4228C134.294 49.5265 133.825 48.8944 132.886 48.5252Z" fill="white"/>
<path d="M140.759 48.0141H138.079V45.3376H136.528V52.4314H138.079V49.3203H140.759V52.4314H142.303V45.3376H140.759V48.0141Z" fill="white"/>
<path d="M144.926 52.4314H149.309V51.1043H146.443V49.2388H149.309V47.9413H146.443V46.6586H149.309V45.3376H144.926V52.4314Z" fill="white"/>
<path d="M153.434 47.1611C153.96 46.6981 154.606 46.466 155.372 46.466C156.282 46.466 157.099 46.8055 157.827 47.4845L158.896 46.5845C158.452 46.129 157.924 45.7771 157.31 45.5302C156.696 45.2833 156.058 45.1598 155.396 45.1598C154.617 45.1598 153.89 45.3265 153.216 45.6611C152.541 45.9956 152.023 46.4376 151.66 46.987C151.298 47.5364 151.117 48.1648 151.117 48.8722C151.117 49.9648 151.515 50.8611 152.31 51.5611C153.105 52.2599 154.127 52.6105 155.375 52.6105C156.052 52.6105 156.654 52.5117 157.182 52.3142C157.709 52.1166 158.27 51.7623 158.864 51.25L157.828 50.2944C157.388 50.6808 156.985 50.9475 156.618 51.0932C156.25 51.2401 155.845 51.3129 155.401 51.3129C154.881 51.3129 154.409 51.208 153.983 50.9994C153.558 50.7895 153.229 50.5018 152.996 50.1352C152.763 49.7685 152.648 49.3487 152.648 48.8747C152.645 48.1956 152.908 47.624 153.434 47.1611Z" fill="white"/>
<path d="M163.465 45.3376L160.368 52.4314H161.956L162.61 50.9697H165.887L166.516 52.4314H168.104L165.016 45.3376H163.465ZM163.172 49.6536L164.25 47.2178L165.32 49.6536H163.172Z" fill="white"/>
<path d="M103.059 23.3152C104.062 22.5498 105.03 21.7671 105.968 20.9683C106.903 20.1695 107.732 19.288 108.451 18.3226C109.169 17.3572 109.747 16.2843 110.181 15.1028C110.615 13.9214 110.834 12.5818 110.834 11.0843C110.834 9.58676 110.516 8.21392 109.881 6.96576C109.246 5.71761 108.284 4.63612 106.997 3.72007C105.71 2.80525 104.097 2.09784 102.157 1.59784C100.217 1.09907 97.9265 0.84845 95.286 0.84845C92.0081 0.84845 89.0749 1.31512 86.4841 2.24599C83.892 3.17809 81.6448 4.45958 79.7385 6.09045L81.9957 9.08553C83.902 7.45465 85.8826 6.29786 87.9389 5.61514C89.9952 4.93365 92.2772 4.59168 94.785 4.59168C97.5606 4.59168 99.633 5.22378 101.005 6.48922C102.375 7.75466 103.061 9.4522 103.061 11.5818C103.061 13.2127 102.585 14.6522 101.631 15.9004C100.677 17.1485 99.566 18.2053 98.296 19.0708L80.2371 32.8005V36.7943H111.333V33.0498H90.268L103.059 23.3152Z" fill="white"/>
<path d="M66.1309 35.9474C66.1867 35.9301 66.2425 35.914 66.2983 35.8968C68.1872 35.298 69.8007 34.4325 71.1377 33.3004C72.4746 32.1696 73.5028 30.8041 74.2221 29.2066C74.9402 27.6091 75.2999 25.8115 75.2999 23.814C75.2999 21.8164 74.9402 20.0201 74.2221 18.4214C73.5028 16.8238 72.4746 15.4596 71.1377 14.3275C69.7995 13.1966 68.1859 12.33 66.2983 11.7312C64.5223 11.1682 62.5628 10.8695 60.4184 10.8361C60.2807 10.8337 60.1431 10.8324 60.0029 10.8324H57.9379H53.7336V1.84596H46.7114V36.7943H54.2656H60.0017C62.2428 36.7955 64.2842 36.5116 66.1309 35.9474ZM53.7336 33.3004V14.3287H60.0029C61.139 14.3287 62.1845 14.5041 63.1382 14.8534C64.0907 15.2028 64.9105 15.7608 65.5963 16.5263C66.281 17.293 66.8167 18.2732 67.2012 19.472C67.5857 20.6707 67.7779 22.1177 67.7779 23.8152C67.7779 25.5127 67.5857 26.9609 67.2012 28.1584C66.8167 29.3572 66.281 30.3387 65.5963 31.1041C64.9105 31.8708 64.092 32.4276 63.1382 32.777C62.1857 33.1264 61.1402 33.3017 60.0029 33.3017H53.7336V33.3004Z" fill="white"/>
<path d="M144.797 18.4226C144.077 16.825 143.049 15.4608 141.712 14.3287C140.374 13.1979 138.761 12.3312 136.873 11.7324C135.706 11.362 134.46 11.1065 133.134 10.9657C132.336 10.8806 131.509 10.8373 130.653 10.8349C130.628 10.8349 130.604 10.8349 130.579 10.8349H124.31V1.84842H117.287V36.7967H124.798H130.579C132.801 36.7967 134.83 36.5177 136.665 35.9622C136.734 35.9412 136.804 35.9202 136.873 35.8992C138.762 35.3004 140.375 34.435 141.712 33.3029C143.049 32.172 144.077 30.8066 144.797 29.209C145.515 27.6115 145.875 25.814 145.875 23.8164C145.875 21.8189 145.515 20.0201 144.797 18.4226ZM137.775 28.1584C137.39 29.3572 136.854 30.3387 136.17 31.1041C135.484 31.8708 134.665 32.4276 133.712 32.777C132.759 33.1263 131.714 33.3017 130.576 33.3017H124.307V14.3287H130.576C131.712 14.3287 132.758 14.504 133.712 14.8534C134.664 15.2028 135.484 15.7608 136.17 16.5263C136.854 17.2929 137.39 18.2732 137.775 19.472C138.159 20.6707 138.351 22.1177 138.351 23.8152C138.351 25.5127 138.158 26.9597 137.775 28.1584Z" fill="white"/>
<path d="M40.9332 36.7955V20.3189C40.9332 18.7547 40.6405 17.3325 40.0551 16.0498C39.4697 14.7683 38.609 13.6621 37.4717 12.73C36.3344 11.7991 34.9466 11.0819 33.3083 10.5831C31.67 10.0843 29.7799 9.83371 27.6405 9.83371C26.838 9.83371 25.9773 9.90038 25.0571 10.0337C24.1368 10.167 23.2091 10.3584 22.274 10.6078C21.3376 10.8572 20.4261 11.1658 19.5406 11.5312C18.6538 11.8979 17.8427 12.33 17.1085 12.8288L18.8634 15.8239C19.9994 15.0584 21.2868 14.451 22.7255 14.0016C24.1629 13.5522 25.635 13.3275 27.1394 13.3275C29.1461 13.3275 30.7758 13.8942 32.0296 15.0251C33.2835 16.1572 33.911 17.9214 33.911 20.3177H26.8889C22.341 20.3177 18.9899 21.0004 16.8331 22.3646C14.6764 23.7301 13.5986 25.793 13.5986 28.556C13.5986 31.319 14.6764 33.382 16.8331 34.7474C18.9899 36.1128 22.341 36.7943 26.8889 36.7943H40.9332V36.7955ZM21.1218 28.5572C21.1218 25.3955 23.0442 23.814 26.8901 23.814H33.9123V33.3005H26.8901C23.0442 33.3005 21.1218 31.7202 21.1218 28.5572Z" fill="#00B5FF"/>
<path d="M159.163 12.5374H152.141V36.7955H159.163V12.5374Z" fill="#00B5FF"/>
<path d="M174.195 33.3004L191.499 14.8275V10.8337H166.421V14.3288H183.223L165.92 32.8004V36.7955H192V33.3004H174.195Z" fill="#00B5FF"/>
<path d="M159.123 1.79654H152.177V8.71015H159.123V1.79654Z" fill="#00B5FF"/>
<path d="M7.85615 1.79654H0.833984V36.0547H7.85615V1.79654Z" fill="#00B5FF"/>
</svg>
