<svg width="162" height="182" viewBox="0 0 162 182" fill="none" xmlns="http://www.w3.org/2000/svg">
<path d="M70.9368 55.3916C79.5225 55.2211 86.3717 47.9574 86.2352 39.168C86.2139 37.7928 86.0225 36.4617 85.6825 35.1951C85.4663 34.2678 85.0952 33.1678 84.5249 31.7404C82.7329 27.2557 81.153 24.9828 78.77 20.6287C78.4405 20.0266 76.21 15.9336 74.2417 11.4736C72.3272 7.13555 71.0063 3.2334 70.076 0C69.2469 3.26836 68.0479 7.22051 66.2694 11.632C64.4409 16.1674 62.3389 20.3465 62.0284 20.9613C59.7821 25.4074 58.2737 27.7416 56.6221 32.2949C56.0966 33.7441 55.76 34.8582 55.5725 35.7936C55.272 37.0727 55.1221 38.4105 55.1436 39.7857C55.2803 48.5752 62.351 55.5623 70.9368 55.3916Z" fill="#00B5FF"/>
<path d="M115.081 72.1325C121.435 72.0063 126.505 66.6303 126.403 60.125C126.388 59.1073 126.246 58.1221 125.994 57.1846C125.834 56.4983 125.559 55.6842 125.137 54.6276C123.811 51.3083 122.642 49.626 120.878 46.4036C120.634 45.9579 118.983 42.9286 117.526 39.6278C116.109 36.417 115.132 33.529 114.443 31.136C113.83 33.5549 112.942 36.4801 111.626 39.745C110.273 43.1016 108.717 46.1948 108.487 46.6499C106.825 49.9405 105.708 51.668 104.486 55.0381C104.097 56.1108 103.848 56.9354 103.709 57.6276C103.487 58.5743 103.376 59.5645 103.392 60.5823C103.493 67.0876 108.726 72.2588 115.081 72.1325Z" fill="#00B5FF"/>
<path d="M11.6905 83.7787C18.045 83.6526 23.1144 78.2766 23.0132 71.7713C22.9974 70.7535 22.8558 69.7684 22.604 68.8309C22.4439 68.1445 22.1693 67.3305 21.7472 66.2738C20.421 62.9545 19.2517 61.2723 17.4878 58.0498C17.2439 57.6041 15.5931 54.5748 14.1363 51.274C12.7193 48.0633 11.7417 45.1752 11.0532 42.7822C10.4396 45.2012 9.55227 48.1264 8.23586 51.3912C6.88254 54.7479 5.32687 57.841 5.09699 58.2961C3.43449 61.5867 2.31809 63.3143 1.09582 66.6844C0.706759 67.757 0.457734 68.5817 0.319063 69.2738C0.0966017 70.2205 -0.0143357 71.2108 0.00148459 72.2285C0.102852 78.7338 5.33625 83.9049 11.6905 83.7787Z" fill="#00B5FF"/>
<path d="M110.132 181.667C107.074 181.667 104.008 181.422 100.965 180.929C99.6038 180.709 98.4626 179.838 97.9124 178.599C97.3753 177.39 97.4833 176.003 98.201 174.886L98.2145 174.865C101.086 170.418 102.841 164.716 103.431 157.917C104.247 148.502 101.856 140.952 100.335 137.249C100.076 136.712 97.4829 131.459 93.3272 127.761C92.7868 130.886 91.4276 134.842 88.1645 138.252C86.971 139.499 85.0989 139.856 83.5065 139.14C81.9409 138.437 81.0173 136.897 81.1538 135.217C81.6194 129.482 81.2241 116.111 68.9122 108.872C69.2645 111.205 69.4059 114.081 69.0169 117.419C68.2395 124.091 65.5524 130.898 61.0303 137.651C53.4534 148.967 53.5637 164.251 61.2989 174.818C62.2296 176.09 62.3198 177.725 61.5343 179.086C60.7335 180.473 59.1692 181.255 57.5507 181.08C53.318 180.621 46.7397 179.483 39.4389 176.668C30.1962 173.103 22.3325 167.844 16.0665 161.038C2.68836 146.504 1.5366 130.082 2.0407 121.586C2.15301 119.694 3.5698 118.173 5.48601 117.887C7.42605 117.598 9.24656 118.652 9.91472 120.451C11.5319 124.805 14.2173 128.115 17.896 130.288C18.446 130.613 19.02 130.913 19.6143 131.185C20.8718 122.154 25.3524 113.523 32.672 106.087C52.4684 85.9783 48.1305 71.4121 45.3466 66.0828C44.6182 64.6882 44.7768 63.0564 45.7602 61.8238C46.7667 60.5624 48.438 60.0162 50.0178 60.4322C68.2427 65.2324 80.5405 73.7964 86.57 85.8867C90.2657 93.2974 90.7794 100.451 90.4587 105.498C97.5563 100.056 98.2296 93.5517 98.1499 90.7832C98.1126 89.483 98.7276 88.2464 99.7952 87.4751C100.904 86.674 102.338 86.4761 103.632 86.9458C119.038 92.5371 128.441 105.942 128.834 106.509C128.875 106.568 128.918 106.635 128.96 106.704C132.461 112.475 138.023 124.305 136.291 139.112C139.013 136.21 141.24 132.995 142.939 129.509C146.328 122.556 146.519 116.298 146.582 114.242C146.588 114.077 146.592 113.933 146.597 113.811C146.736 110.357 146.415 107.96 146.202 106.374C146.113 105.71 146.043 105.185 146.029 104.723C145.951 102.128 147.892 101.42 148.282 101.305C148.895 101.123 150.121 100.979 151.446 102.051C154.754 104.728 162.854 119.483 161.496 136.848L161.486 136.974C161.213 140.489 160.38 151.185 152.916 161.207C147.338 168.699 139.466 174.517 130.153 178.032C123.763 180.443 116.968 181.667 110.132 181.667ZM103.131 178.053L103.128 178.057C103.129 178.056 103.13 178.054 103.131 178.053ZM104.615 175.512C121.768 177.37 138.653 170.551 148.217 157.707C154.669 149.042 155.378 139.944 155.645 136.519L155.655 136.391C156.304 128.089 154.495 120.603 152.413 115.196C152.294 118.123 151.783 124.737 148.206 132.076C145.415 137.803 141.402 142.879 136.279 147.164C134.932 148.292 133.011 148.434 131.5 147.519C130.024 146.625 129.305 144.974 129.668 143.312C130.058 141.524 130.266 140.062 130.418 138.868C132.105 125.638 127.127 114.995 123.984 109.798C123.325 108.858 115.928 98.5972 103.901 93.3585C103.38 98.3974 100.787 106.598 90.2823 112.63C88.8979 113.425 87.1598 113.349 85.8538 112.436C84.5819 111.547 83.9536 110.056 84.2138 108.545C85.4497 101.37 86.6136 77.7572 52.1259 67.1249C53.237 70.4453 54.1018 75.1095 53.3411 80.7978C52.0425 90.5087 46.4932 100.4 36.8479 110.198C29.8538 117.302 25.8249 125.559 25.1964 134.076C25.1065 135.294 24.4651 136.387 23.4366 137.074C22.3868 137.775 21.0395 137.955 19.8321 137.556C18.0932 136.981 16.4387 136.233 14.9157 135.333C12.2196 133.74 9.89246 131.64 8.00437 129.118C8.71082 136.997 11.5645 147.495 20.3776 157.069C31.4018 169.045 45.854 173.238 54.2837 174.702C51.3784 169.473 49.7311 163.369 49.5827 157.117C49.3891 148.967 51.6641 141.108 56.1618 134.391C65.3636 120.649 63.5964 110.402 62.4095 106.635C61.946 105.162 62.3753 103.598 63.5302 102.552C64.7163 101.478 66.4382 101.192 67.9171 101.825C76.1807 105.356 81.887 111.217 84.8774 119.247C86.1458 122.652 86.7571 126.009 86.9991 129.012C87.6081 127.152 87.7723 125.432 87.797 124.261C87.8264 122.846 88.6305 121.543 89.8954 120.86C91.2016 120.154 92.793 120.203 94.0489 120.989C101.312 125.534 105.499 134.455 105.674 134.833L105.723 134.945C107.446 139.116 110.197 147.712 109.268 158.424C108.699 164.985 107.137 170.718 104.615 175.512ZM124.014 109.841C124.016 109.844 124.018 109.847 124.021 109.85C124.019 109.847 124.016 109.844 124.014 109.841Z" fill="white"/>
</svg>
