<svg width="59" height="55" viewBox="0 0 59 55" fill="none" xmlns="http://www.w3.org/2000/svg">
<path d="M17.2574 19.741C17.2574 15.9882 16.1752 13.0216 9.25997 11.2568C5.84315 10.3855 5.09377 9.63353 5.09377 8.13807C5.09377 6.46646 6.1601 5.51453 8.26432 5.51453C10.8738 5.51453 11.6727 6.81093 12.0061 7.99124C12.0954 8.30745 12.3135 8.51142 12.5532 8.51142H15.8499C16.2364 8.51142 16.518 7.99478 16.4245 7.46167C15.9136 4.54814 13.9574 0.939453 8.40389 0.939453C4.10166 0.939453 0.602533 3.57988 0.602533 8.74651C0.602533 12.2171 1.75079 15.1325 8.06681 16.6682C11.9021 17.5937 12.7403 18.5984 12.7403 20.3818C12.7403 22.0506 11.922 23.2785 9.09339 23.2785C6.31029 23.2785 5.02451 22.033 4.43122 20.091C4.33675 19.7818 4.12545 19.578 3.8883 19.578H0.605017C0.212657 19.578 -0.0705719 20.1103 0.0341484 20.6478C0.838743 24.7787 3.42818 27.8491 8.67774 27.8491C14.7817 27.8491 17.2574 24.2257 17.2574 19.741Z" fill="white"/>
<path d="M36.4505 23.2644C36.5019 22.7569 36.2248 22.3024 35.8641 22.3024H25.8461C25.5189 22.3024 25.2537 21.9254 25.2537 21.4602V17.2556C25.2537 16.7905 25.5189 16.4135 25.8461 16.4135H34.8184C35.1456 16.4135 35.4108 16.0364 35.4108 15.5713V12.2278C35.4108 11.7627 35.1456 11.3856 34.8184 11.3856H25.8461C25.5189 11.3856 25.2537 11.0086 25.2537 10.5435V7.32763C25.2537 6.86254 25.5189 6.48546 25.8461 6.48546H35.3672C35.6944 6.48546 35.9596 6.10844 35.9596 5.64329V2.29981C35.9596 1.83472 35.6944 1.45764 35.3672 1.45764H21.4293C21.1021 1.45764 20.8369 1.83466 20.8369 2.29981V26.4878C20.8369 26.9529 21.1021 27.33 21.4293 27.33H35.5258C35.8204 27.33 36.0703 27.0223 36.1122 26.6077L36.4505 23.2644Z" fill="white"/>
<path d="M48.5131 27.8814C55.1327 27.8814 58.4972 21.475 58.4972 14.3046C58.4972 7.24883 55.0729 0.907043 48.7178 0.907043C42.5488 0.907043 38.8154 7.21647 38.8154 14.3325C38.8154 21.885 42.3409 27.8814 48.5131 27.8814ZM48.5854 5.80989C52.2688 5.80989 53.8405 9.79417 53.8405 14.3781C53.8405 18.584 52.428 22.9786 48.7632 22.9786C45.2163 22.9786 43.4719 19.1472 43.4719 14.2547C43.4719 9.89423 45.0426 5.80989 48.5854 5.80989Z" fill="white"/>
<path d="M48.2997 39.6935H47.2865C47.018 39.6935 46.8003 39.9809 46.8003 40.3355V46.9353C46.8003 47.2899 47.018 47.5774 47.2865 47.5774H48.2879C50.0471 47.5774 50.8247 45.8496 50.8247 43.4899C50.8247 41.5106 50.0966 39.6935 48.2997 39.6935Z" fill="#00B5FF"/>
<path d="M55.2648 33.0188H3.24447C1.45261 33.0188 0 34.3682 0 36.0328V51.1228C0 52.7874 1.45261 54.1368 3.24447 54.1368H55.2648C57.0566 54.1368 58.5092 52.7874 58.5092 51.1228V36.0328C58.5092 34.3682 57.0566 33.0188 55.2648 33.0188ZM12.0399 39.0824C12.0399 39.437 11.8222 39.7244 11.5536 39.7244H8.05868C7.79017 39.7244 7.57247 40.0119 7.57247 40.3665V42.0512C7.57247 42.4058 7.79017 42.6933 8.05868 42.6933H11.271C11.5395 42.6933 11.7572 42.9807 11.7572 43.3353V44.1986C11.7572 44.5532 11.5395 44.8406 11.271 44.8406H8.05868C7.79017 44.8406 7.57247 45.1281 7.57247 45.4827V49.0518C7.57247 49.4063 7.35477 49.6938 7.08626 49.6938H6.12148C5.85297 49.6938 5.63527 49.4063 5.63527 49.0518V38.2191C5.63527 37.8645 5.85297 37.5771 6.12148 37.5771H11.5536C11.8221 37.5771 12.0398 37.8645 12.0398 38.2191V39.0824H12.0399ZM19.8446 44.2415C20.159 44.6678 20.4304 45.4211 20.4304 46.7856V47.3839C20.4304 47.9135 20.4327 48.4909 20.4689 48.986C20.4966 49.3647 20.2744 49.6939 19.9862 49.6939H19.0541C18.8177 49.6939 18.6148 49.4702 18.5749 49.1626C18.5058 48.6298 18.4901 47.9001 18.4901 46.9732V46.7962C18.4901 45.4713 18.2368 44.8443 16.758 44.8443H15.9392C15.6707 44.8443 15.453 45.1318 15.453 45.4864V49.0519C15.453 49.4065 15.2353 49.694 14.9668 49.694H14.0005C13.732 49.694 13.5143 49.4065 13.5143 49.0519V38.2191C13.5143 37.8645 13.732 37.5771 14.0005 37.5771H17.546C19.5467 37.5771 20.6237 39.0323 20.6237 40.9036C20.6237 42.0446 20.2937 42.8183 19.8677 43.303C19.6539 43.5462 19.6477 43.9746 19.8446 44.2415ZM24.3751 49.0519C24.3751 49.4065 24.1574 49.6939 23.8889 49.6939H22.8773C22.6088 49.6939 22.3911 49.4065 22.3911 49.0519V38.2191C22.3911 37.8645 22.6088 37.5771 22.8773 37.5771H23.8889C24.1574 37.5771 24.3751 37.8645 24.3751 38.2191V49.0519ZM33.2554 48.2805L33.1608 49.1438C33.1262 49.4596 32.9212 49.6939 32.6796 49.6939H27.0561C26.7876 49.6939 26.5699 49.4064 26.5699 49.0518V38.2191C26.5699 37.8645 26.7876 37.5771 27.0561 37.5771H32.5899C32.8584 37.5771 33.0761 37.8645 33.0761 38.2191V39.0824C33.0761 39.437 32.8584 39.7244 32.5899 39.7244H28.9816C28.7131 39.7244 28.4954 40.0119 28.4954 40.3665V41.6785C28.4954 42.0331 28.7131 42.3206 28.9816 42.3206H32.3972C32.6657 42.3206 32.8834 42.608 32.8834 42.9626V43.8259C32.8834 44.1805 32.6657 44.468 32.3972 44.468H28.9816C28.7131 44.468 28.4954 44.7554 28.4954 45.11V46.9043C28.4954 47.2589 28.7131 47.5464 28.9816 47.5464H32.7743C33.0705 47.5465 33.2979 47.8934 33.2554 48.2805ZM42.6214 49.0519C42.6214 49.4065 42.4037 49.6939 42.1351 49.6939H40.5767C40.3994 49.6939 40.2362 49.5667 40.1507 49.3615C39.0996 46.8364 36.936 41.6277 36.5016 40.2899H36.4765C36.543 41.3498 36.5648 43.8387 36.5648 46.0089V49.0519C36.5648 49.4065 36.3471 49.694 36.0786 49.694H35.2412C34.9727 49.694 34.755 49.4065 34.755 49.0519V38.2191C34.755 37.8645 34.9727 37.5771 35.2412 37.5771H36.9283C37.1045 37.5771 37.2668 37.7027 37.3527 37.9059C38.523 40.6759 40.4948 45.2561 40.8998 46.5247H40.9248C40.8215 45.2601 40.8232 43.1559 40.8232 41.1679V38.219C40.8232 37.8644 41.0409 37.577 41.3094 37.577H42.1351C42.4036 37.577 42.6213 37.8644 42.6213 38.219V49.0519H42.6214ZM48.3711 49.6939H45.3026C45.0341 49.6939 44.8164 49.4065 44.8164 49.0519V38.2191C44.8164 37.8645 45.0341 37.5771 45.3026 37.5771H48.4547C51.1272 37.5771 52.8738 39.9011 52.8738 43.4836C52.8739 47.0175 51.1789 49.6939 48.3711 49.6939Z" fill="#00B5FF"/>
<path d="M17.1633 39.6624H15.9388C15.6703 39.6624 15.4526 39.9499 15.4526 40.3045V42.1164C15.4526 42.471 15.6703 42.7585 15.9388 42.7585H17.116C18.2023 42.7585 18.6211 42.2131 18.6211 41.1996C18.6212 40.2142 18.1336 39.6624 17.1633 39.6624Z" fill="#00B5FF"/>
</svg>
